<?xml version="1.0" encoding="UTF-8"?>
<svg xmlns="http://www.w3.org/2000/svg" xmlns:xlink="http://www.w3.org/1999/xlink" width="751px" height="499px" viewBox="0 0 376 250" version="1.1">
<g id="surface1">
<path style=" stroke:none;fill-rule:nonzero;fill:rgb(0%,0%,0%);fill-opacity:1;" d="M 175.566406 10.085938 C 164.019531 12.425781 153.402344 16.699219 144.925781 22.3125 C 142.457031 23.980469 138.050781 27.65625 135.113281 30.527344 C 123.363281 42.015625 117.554688 52.503906 112.816406 71.140625 C 112.148438 73.546875 111.816406 83.300781 111.613281 105.8125 L 111.347656 137.140625 L 112.882812 136.671875 C 113.75 136.40625 115.753906 135.871094 117.355469 135.472656 L 120.160156 134.804688 L 120.160156 90.847656 L 133.710938 90.78125 C 141.121094 90.714844 149.933594 90.582031 153.203125 90.449219 C 156.542969 90.3125 161.683594 90.179688 164.753906 90.179688 L 170.226562 90.179688 L 170.226562 87.175781 C 170.226562 80.828125 174.164062 74.480469 180.171875 71.074219 C 185.847656 67.9375 194.726562 69.339844 200.667969 74.347656 C 203.605469 76.820312 205.539062 81.363281 205.875 86.371094 L 206.074219 90.515625 L 228.703125 90.648438 C 241.121094 90.78125 252.46875 90.847656 253.871094 90.847656 L 256.339844 90.847656 L 256.339844 134.667969 L 259.546875 135.539062 C 261.28125 136.070312 263.082031 136.738281 263.484375 137.140625 C 264.085938 137.542969 264.484375 137.40625 264.753906 136.738281 C 264.953125 136.140625 265.019531 122.042969 264.820312 105.410156 C 264.484375 72.945312 264.351562 71.074219 260.480469 60.121094 C 256.007812 47.363281 246.59375 34.066406 236.847656 26.585938 C 224.5 17.101562 213.882812 12.425781 199.933594 10.289062 C 193.257812 9.285156 180.171875 9.152344 175.566406 10.085938 Z M 197.261719 11.421875 C 225.03125 14.695312 248.863281 33.332031 258.542969 59.453125 C 262.816406 70.875 262.949219 72.476562 263.015625 104.808594 C 263.082031 121.042969 263.015625 134.46875 262.882812 134.601562 C 262.75 134.734375 261.546875 134.46875 260.210938 134.066406 L 257.675781 133.265625 L 257.542969 111.355469 L 257.34375 89.445312 L 233.976562 89.445312 C 221.160156 89.445312 210.011719 89.3125 209.210938 89.113281 C 208.011719 88.777344 207.609375 88.042969 207.277344 85.304688 C 205.808594 74.480469 198.53125 68.136719 187.515625 68.136719 C 182.976562 68.136719 181.84375 68.402344 179.371094 69.875 C 172.828125 73.949219 169.691406 78.492188 169.359375 84.433594 C 169.226562 86.640625 168.757812 88.511719 168.222656 88.84375 C 167.488281 89.3125 158.746094 89.378906 122.027344 89.511719 L 118.824219 89.511719 L 118.691406 111.355469 L 118.492188 133.132812 L 116.621094 133.800781 C 112.484375 135.136719 112.617188 136.472656 112.949219 104.34375 C 113.285156 76.953125 113.417969 74.816406 114.753906 69.472656 C 118.757812 54.175781 124.03125 44.421875 134.113281 33.867188 C 140.71875 26.988281 145.058594 23.714844 153.203125 19.4375 C 166.820312 12.359375 181.910156 9.550781 197.261719 11.421875 Z M 197.261719 11.421875 "/>
<path style=" stroke:none;fill-rule:nonzero;fill:rgb(0%,0%,0%);fill-opacity:1;" d="M 174.964844 17.703125 C 164.351562 20.039062 154.9375 24.25 146.660156 30.460938 C 143.859375 32.53125 141.523438 34.46875 141.523438 34.667969 C 141.523438 34.871094 148.730469 42.285156 157.542969 51.101562 L 173.496094 67.066406 L 176.234375 65.53125 C 177.703125 64.730469 180.375 63.660156 182.109375 63.261719 L 185.246094 62.457031 L 185.445312 39.546875 L 185.582031 16.699219 L 182.441406 16.765625 C 180.640625 16.765625 177.300781 17.234375 174.964844 17.703125 Z M 184.246094 39.210938 C 184.246094 50.566406 183.976562 60.121094 183.710938 60.519531 C 183.445312 60.988281 182.042969 61.65625 180.574219 62.058594 C 179.105469 62.457031 177.300781 63.261719 176.636719 63.792969 C 175.902344 64.328125 174.832031 64.796875 174.296875 64.796875 C 172.898438 64.796875 144.191406 36.070312 144.191406 34.734375 C 144.257812 33 155.273438 25.917969 162.414062 23.046875 C 167.222656 21.109375 177.101562 18.769531 180.773438 18.703125 L 184.246094 18.703125 Z M 184.246094 39.210938 "/>
<path style=" stroke:none;fill-rule:nonzero;fill:rgb(0%,0%,0%);fill-opacity:1;" d="M 168.558594 27.453125 C 162.882812 29.390625 156.742188 32.265625 153.871094 34.46875 C 152.601562 35.402344 153.070312 35.9375 163.550781 46.425781 C 178.371094 61.1875 177.570312 61.523438 177.570312 41.015625 L 177.570312 25.382812 L 176.101562 25.382812 C 175.234375 25.382812 171.894531 26.320312 168.558594 27.453125 Z M 176.234375 41.417969 C 176.234375 52.171875 176.035156 55.445312 175.367188 55.445312 C 174.363281 55.445312 155.539062 36.539062 155.539062 35.472656 C 155.539062 34.535156 165.621094 29.726562 170.292969 28.457031 C 176.769531 26.71875 176.234375 25.519531 176.234375 41.417969 Z M 176.234375 41.417969 "/>
<path style=" stroke:none;fill-rule:nonzero;fill:rgb(0%,0%,0%);fill-opacity:1;" d="M 167.089844 35.539062 C 166.222656 35.9375 165.554688 36.605469 165.554688 37.007812 C 165.621094 37.808594 167.289062 39.945312 169.089844 41.347656 C 170.160156 42.152344 170.226562 41.949219 170.226562 38.476562 C 170.226562 34.535156 169.894531 34.203125 167.089844 35.539062 Z M 168.890625 37.40625 C 168.890625 37.742188 168.558594 38.074219 168.15625 38.074219 C 167.824219 38.074219 167.691406 37.742188 167.890625 37.40625 C 168.089844 37.007812 168.425781 36.738281 168.625 36.738281 C 168.757812 36.738281 168.890625 37.007812 168.890625 37.40625 Z M 191.386719 17.167969 C 191.121094 17.367188 190.921875 27.453125 190.921875 39.414062 C 190.921875 62.992188 190.785156 62.191406 194.59375 63.058594 C 195.726562 63.328125 198.128906 64.261719 200 65.195312 L 203.46875 66.933594 L 219.226562 51.035156 C 227.902344 42.21875 234.980469 34.871094 234.980469 34.601562 C 234.980469 33.867188 225.433594 26.988281 221.894531 25.183594 C 211.082031 19.707031 193.457031 15.03125 191.386719 17.167969 Z M 203.738281 19.972656 C 211.015625 21.644531 222.828125 26.921875 227.703125 30.726562 C 229.4375 31.996094 231.375 33.398438 232.042969 33.867188 C 233.175781 34.535156 231.839844 36.070312 218.15625 49.832031 L 203.003906 65.0625 L 199.464844 63.328125 C 197.53125 62.324219 195.328125 61.457031 194.59375 61.324219 C 193.324219 61.121094 193.257812 60.453125 192.921875 40.414062 C 192.722656 28.992188 192.789062 19.371094 193.058594 18.972656 C 193.589844 18.238281 197.863281 18.636719 203.738281 19.972656 Z M 203.738281 19.972656 "/>
<path style=" stroke:none;fill-rule:nonzero;fill:rgb(0%,0%,0%);fill-opacity:1;" d="M 198.929688 41.015625 L 198.929688 56.648438 L 200.464844 57.046875 C 201.667969 57.382812 203.671875 55.710938 212.75 46.625 C 222.828125 36.539062 223.496094 35.738281 222.5625 34.601562 C 220.960938 32.867188 211.148438 28.191406 205.875 26.71875 C 198.261719 24.515625 198.929688 23.113281 198.929688 41.015625 Z M 206.339844 28.457031 C 211.214844 29.859375 220.960938 34.667969 220.960938 35.605469 C 220.960938 36.941406 201.800781 55.644531 201 55.175781 C 200.535156 54.84375 200.265625 50.300781 200.265625 41.015625 C 200.265625 25.519531 199.800781 26.519531 206.339844 28.457031 Z M 206.339844 28.457031 "/>
<path style=" stroke:none;fill-rule:nonzero;fill:rgb(0%,0%,0%);fill-opacity:1;" d="M 206.742188 35.203125 C 206.140625 35.738281 206.140625 42.085938 206.675781 42.085938 C 207.207031 42.085938 211.613281 37.609375 211.613281 37.140625 C 211.613281 36.808594 208.011719 34.734375 207.410156 34.734375 C 207.277344 34.734375 206.941406 34.9375 206.742188 35.203125 Z M 135.046875 41.214844 C 126.835938 50.101562 120.160156 66.199219 119.359375 79.359375 L 119.160156 82.964844 L 141.722656 83.03125 L 164.21875 83.167969 L 165.621094 78.691406 C 166.421875 76.21875 167.488281 73.8125 167.957031 73.414062 C 168.492188 73.011719 168.890625 72.144531 168.890625 71.542969 C 168.890625 70.542969 138.25 39.414062 137.25 39.414062 C 136.980469 39.414062 135.980469 40.214844 135.046875 41.214844 Z M 165.753906 74.617188 C 164.953125 76.351562 164.152344 78.625 163.882812 79.625 L 163.550781 81.496094 L 142.253906 81.496094 C 130.574219 81.496094 120.894531 81.363281 120.695312 81.164062 C 120.09375 80.496094 122.164062 69.40625 123.832031 64.328125 C 126.566406 56.3125 131.242188 47.761719 135.445312 43.21875 L 137.117188 41.347656 L 167.15625 71.410156 Z M 165.753906 74.617188 "/>
<path style=" stroke:none;fill-rule:nonzero;fill:rgb(0%,0%,0%);fill-opacity:1;" d="M 135.980469 52.90625 C 132.578125 57.316406 128.171875 68.871094 128.171875 73.28125 L 128.171875 75.484375 L 143.125 75.484375 C 158.746094 75.484375 160.144531 75.21875 159.144531 72.546875 C 158.878906 71.742188 141.121094 53.707031 137.917969 50.902344 C 137.785156 50.769531 136.914062 51.703125 135.980469 52.90625 Z M 148.195312 63.058594 C 153.804688 68.605469 157.476562 72.746094 157.277344 73.28125 C 157.007812 73.949219 154.070312 74.148438 143.191406 74.148438 C 127.4375 74.148438 128.570312 74.816406 130.90625 67.066406 C 132.644531 61.324219 136.847656 53.304688 137.984375 53.574219 C 138.449219 53.707031 143.058594 57.984375 148.195312 63.058594 Z M 148.195312 63.058594 "/>
<path style=" stroke:none;fill-rule:nonzero;fill:rgb(0%,0%,0%);fill-opacity:1;" d="M 138.183594 64.0625 C 137.851562 64.796875 137.515625 66 137.515625 66.734375 C 137.515625 67.9375 137.917969 68.136719 140.855469 68.136719 C 142.722656 68.136719 144.191406 67.867188 144.191406 67.601562 C 144.191406 66.933594 139.984375 62.792969 139.320312 62.792969 C 139.117188 62.792969 138.585938 63.394531 138.183594 64.0625 Z M 223.296875 55.175781 C 214.886719 63.726562 207.808594 71.140625 207.675781 71.542969 C 207.542969 72.011719 207.875 72.679688 208.34375 73.078125 C 208.878906 73.480469 209.878906 75.617188 210.613281 77.824219 C 211.28125 80.027344 212.082031 82.097656 212.347656 82.429688 C 212.949219 83.097656 239.386719 83.5 249.664062 82.898438 L 257.34375 82.5 L 257.140625 79.492188 C 256.472656 70.140625 252.46875 58.117188 246.996094 49.164062 C 243.722656 43.753906 240.1875 39.34375 239.183594 39.480469 C 238.917969 39.480469 231.773438 46.558594 223.296875 55.175781 Z M 240.785156 42.550781 C 248.597656 52.4375 254.136719 65.53125 255.339844 77.019531 L 255.808594 81.496094 L 234.644531 81.363281 L 213.484375 81.164062 L 212.214844 77.824219 C 211.480469 75.953125 210.546875 73.8125 210.144531 72.945312 C 209.410156 71.476562 210.28125 70.472656 224.296875 56.445312 C 232.574219 48.164062 239.453125 41.417969 239.585938 41.417969 C 239.71875 41.417969 240.253906 41.949219 240.785156 42.550781 Z M 240.785156 42.550781 "/>
<path style=" stroke:none;fill-rule:nonzero;fill:rgb(0%,0%,0%);fill-opacity:1;" d="M 227.703125 61.722656 C 213.21875 76.21875 212.882812 75.484375 233.710938 75.484375 L 249.132812 75.484375 L 248.664062 72.945312 C 247.929688 68.9375 245.726562 62.792969 243.191406 57.78125 C 239.050781 49.5 240.1875 49.164062 227.703125 61.722656 Z M 241.789062 58.316406 C 244.324219 63.328125 246.996094 70.808594 246.996094 72.945312 C 246.996094 74.082031 246.261719 74.148438 233.175781 74.015625 C 222.628906 73.882812 219.292969 73.613281 219.292969 72.945312 C 219.292969 71.808594 237.046875 53.640625 238.316406 53.507812 C 238.917969 53.507812 240.253906 55.3125 241.789062 58.316406 Z M 241.789062 58.316406 "/>
<path style=" stroke:none;fill-rule:nonzero;fill:rgb(0%,0%,0%);fill-opacity:1;" d="M 234.84375 65.0625 C 233.445312 66.265625 232.308594 67.46875 232.308594 67.734375 C 232.308594 67.9375 233.84375 68.136719 235.714844 68.136719 L 239.183594 68.136719 L 238.71875 66 C 238.117188 62.792969 237.582031 62.660156 234.84375 65.0625 Z M 105.472656 141.617188 L 105.472656 193.722656 L 93.457031 193.722656 L 93.457031 177.019531 C 93.457031 166.53125 93.191406 160.320312 92.789062 160.320312 C 92.390625 160.320312 92.054688 166.601562 91.988281 176.820312 L 91.789062 193.386719 L 85.980469 193.585938 L 80.105469 193.789062 L 80.105469 207.015625 L 74.296875 207.214844 L 68.425781 207.414062 L 68.222656 213.226562 C 68.089844 217.300781 67.757812 219.105469 67.222656 219.105469 L 38.25 219.105469 C 19.691406 219.105469 10.011719 219.304688 10.011719 219.773438 C 10.011719 220.171875 20.027344 220.507812 38.917969 220.574219 L 67.757812 220.773438 L 67.757812 233.46875 L 38.851562 233.667969 C 20.027344 233.734375 10.082031 234.066406 10.347656 234.46875 C 10.949219 235.402344 78.769531 235.402344 78.769531 234.46875 C 78.769531 233.800781 77.101562 233.601562 72.230469 233.800781 L 69.359375 233.933594 L 69.558594 227.320312 L 69.757812 220.773438 L 74.964844 220.574219 L 80.238281 220.375 L 79.972656 227.789062 L 79.773438 235.136719 L 91.65625 235.136719 C 98.863281 235.136719 103.472656 234.871094 103.472656 234.46875 C 103.472656 234.066406 99.132812 233.734375 92.65625 233.667969 L 81.777344 233.46875 L 81.777344 220.773438 L 87.648438 220.574219 L 93.523438 220.375 L 93.457031 215.230469 C 93.390625 212.425781 93.390625 209.6875 93.390625 209.21875 C 93.457031 208.683594 94.925781 208.417969 98.464844 208.417969 C 101.335938 208.417969 103.472656 208.148438 103.472656 207.75 C 103.472656 207.347656 101.335938 207.082031 98.464844 207.082031 L 93.457031 207.082031 L 93.457031 195.058594 L 105.472656 195.058594 L 105.472656 201.003906 C 105.472656 205.144531 105.207031 207.082031 104.671875 207.347656 C 104.003906 207.683594 104.003906 207.816406 104.671875 208.148438 C 105.675781 208.617188 105.875 233.800781 104.804688 233.800781 C 104.472656 233.800781 104.136719 234.066406 104.136719 234.46875 C 104.136719 234.804688 104.738281 235.136719 105.472656 235.136719 C 106.742188 235.136719 106.808594 234.667969 106.808594 227.589844 C 106.808594 223.515625 106.808594 201.003906 106.875 177.6875 C 106.941406 103.007812 106.875 89.511719 106.140625 89.511719 C 105.675781 89.511719 105.472656 107.347656 105.472656 141.617188 Z M 92.121094 201.070312 L 92.121094 207.148438 L 86.980469 206.945312 L 81.777344 206.746094 L 81.574219 201.46875 C 81.441406 197.660156 81.640625 195.992188 82.242188 195.65625 C 82.710938 195.324219 85.113281 195.058594 87.648438 195.058594 L 92.121094 195.058594 Z M 80.105469 213.695312 C 80.105469 216.632812 79.90625 219.105469 79.640625 219.238281 C 79.304688 219.371094 76.902344 219.371094 74.296875 219.238281 L 69.425781 218.972656 L 69.425781 208.417969 L 80.105469 208.417969 Z M 91.988281 212.359375 C 92.390625 218.90625 92.1875 219.105469 86.449219 219.105469 L 81.441406 219.105469 L 81.441406 214.226562 C 81.441406 211.488281 81.640625 209.085938 81.910156 208.816406 C 82.175781 208.550781 84.511719 208.484375 87.117188 208.550781 L 91.789062 208.75 Z M 269.492188 114.695312 C 269.226562 128.589844 269.15625 149.699219 269.292969 161.65625 C 269.425781 173.613281 269.558594 194.988281 269.625 209.21875 L 269.691406 235.136719 L 317.289062 235.070312 C 343.390625 235.070312 365.417969 234.804688 366.152344 234.46875 L 367.488281 233.867188 L 366.152344 233.800781 L 308.34375 233.800781 L 308.542969 227.320312 L 308.742188 220.773438 L 337.449219 220.640625 C 353.269531 220.507812 366.421875 220.441406 366.6875 220.441406 C 367.019531 220.441406 367.019531 220.105469 366.820312 219.773438 C 366.554688 219.371094 356.007812 219.105469 337.449219 219.105469 L 308.476562 219.105469 L 308.277344 213.226562 L 308.078125 207.414062 L 302.269531 207.214844 L 296.394531 207.015625 L 296.394531 193.789062 L 290.585938 193.585938 L 284.710938 193.386719 L 284.511719 176.820312 C 284.445312 166.601562 284.109375 160.320312 283.710938 160.320312 C 283.308594 160.320312 283.042969 166.53125 283.042969 177.019531 L 283.042969 193.722656 L 271.027344 193.722656 L 271.027344 141.617188 C 271.027344 112.960938 270.761719 89.511719 270.425781 89.511719 C 270.160156 89.511719 269.691406 100.867188 269.492188 114.695312 Z M 283.042969 201.070312 L 283.042969 207.082031 L 271.027344 207.082031 L 271.027344 201.535156 C 271.027344 198.464844 271.226562 195.726562 271.496094 195.523438 C 271.695312 195.257812 274.429688 195.058594 277.503906 195.058594 L 283.042969 195.058594 Z M 294.726562 201.070312 L 294.726562 206.746094 L 289.585938 206.945312 L 284.378906 207.148438 L 284.378906 201.535156 C 284.378906 198.464844 284.578125 195.726562 284.84375 195.457031 C 285.113281 195.191406 287.449219 195.125 290.050781 195.191406 L 294.726562 195.390625 Z M 306.941406 213.894531 L 307.140625 219.105469 L 303.136719 219.105469 C 300.933594 219.105469 298.929688 219.371094 298.730469 219.773438 C 298.464844 220.171875 299.464844 220.441406 301.199219 220.441406 C 307.140625 220.441406 307.140625 220.507812 306.941406 227.386719 L 306.742188 233.46875 L 301.601562 233.667969 L 296.394531 233.867188 L 296.394531 227.1875 C 296.394531 222.511719 296.660156 220.441406 297.261719 220.171875 C 297.929688 219.839844 297.929688 219.707031 297.261719 219.371094 C 296.195312 218.90625 296.058594 208.617188 297.0625 208.285156 C 297.394531 208.148438 299.730469 208.214844 302.203125 208.417969 L 306.742188 208.75 Z M 283.109375 209.21875 C 283.109375 209.6875 283.175781 212.492188 283.242188 215.429688 L 283.375 220.773438 L 287.714844 220.574219 C 294.992188 220.242188 294.859375 220.105469 294.792969 227.253906 L 294.726562 233.46875 L 271.359375 233.46875 L 271.160156 220.910156 L 271.027344 208.417969 L 277.035156 208.417969 C 281.375 208.417969 283.042969 208.617188 283.109375 209.21875 Z M 294.726562 213.761719 L 294.726562 218.769531 L 284.84375 218.769531 L 284.578125 214.429688 C 284.445312 212.023438 284.511719 209.6875 284.710938 209.21875 C 284.914062 208.617188 286.378906 208.417969 289.851562 208.550781 L 294.726562 208.75 Z M 114.417969 143.21875 C 112.617188 145.023438 112.148438 146.023438 112.148438 148.230469 C 112.148438 153.441406 114.953125 156.3125 120.09375 156.3125 C 122.363281 156.3125 123.230469 155.910156 125.167969 153.90625 C 127.101562 151.902344 127.503906 151.035156 127.503906 148.5625 C 127.503906 146.160156 127.101562 145.289062 125.167969 143.285156 C 123.164062 141.28125 122.363281 140.949219 119.757812 140.949219 C 117.15625 140.949219 116.355469 141.28125 114.417969 143.21875 Z M 121.695312 142.886719 C 126.234375 144.621094 127.503906 149.296875 124.433594 152.90625 C 123.03125 154.644531 122.230469 154.976562 119.824219 154.976562 C 117.488281 154.976562 116.621094 154.644531 115.554688 153.171875 C 112.617188 149.5 112.949219 145.691406 116.355469 143.621094 C 118.757812 142.085938 119.425781 142.015625 121.695312 142.886719 Z M 253.335938 141.550781 C 250.066406 142.886719 247.996094 147.429688 248.996094 150.96875 C 250 154.441406 252.734375 156.3125 256.941406 156.3125 C 259.078125 156.3125 260.078125 155.84375 262.082031 153.976562 C 264.417969 151.769531 264.484375 151.503906 264.21875 148.164062 C 263.882812 145.222656 263.484375 144.355469 261.613281 142.820312 C 259.34375 140.882812 256.140625 140.414062 253.335938 141.550781 Z M 259.746094 143.421875 C 263.484375 145.625 263.75 151.503906 260.078125 153.707031 C 255.738281 156.378906 251.335938 154.308594 250.332031 149.164062 C 249.933594 146.695312 250.066406 146.160156 251.601562 144.757812 C 254.539062 142.015625 256.742188 141.683594 259.746094 143.421875 Z M 262.683594 160.921875 C 262.480469 161.324219 260.945312 161.789062 259.34375 162.058594 L 256.339844 162.457031 L 256.339844 206.878906 L 251.933594 209.085938 C 246.394531 211.824219 241.589844 216.632812 238.984375 222.109375 L 236.914062 226.453125 L 139.585938 226.453125 L 137.449219 221.976562 C 134.511719 216.164062 130.238281 211.824219 124.632812 209.152344 L 120.160156 207.015625 L 120.160156 162.992188 L 118.691406 162.390625 C 117.824219 162.125 115.886719 161.65625 114.285156 161.390625 L 111.480469 160.988281 L 111.613281 187.84375 L 111.816406 214.761719 L 115.21875 215.164062 C 120.761719 215.832031 127.769531 221.042969 129.839844 226.117188 C 130.171875 226.855469 130.773438 229.125 131.109375 231.128906 L 131.84375 234.804688 L 187.851562 235.003906 C 230.105469 235.070312 244.058594 234.9375 244.390625 234.335938 C 244.660156 233.933594 245.058594 232.199219 245.328125 230.527344 C 245.992188 226.320312 247.796875 222.980469 251.066406 220.171875 C 254.136719 217.570312 259.945312 215.097656 263.082031 215.097656 L 265.019531 215.097656 L 265.019531 187.707031 C 264.953125 164.664062 264.820312 160.320312 264.019531 160.320312 C 263.484375 160.320312 262.949219 160.585938 262.683594 160.921875 Z M 117.089844 163.660156 L 118.824219 164.261719 L 118.957031 186.441406 L 119.160156 208.550781 L 122.5625 209.820312 C 124.5 210.554688 127.4375 212.359375 129.105469 213.894531 C 132.710938 217.035156 137.316406 223.445312 137.648438 225.851562 L 137.851562 227.453125 L 188.117188 227.65625 C 235.511719 227.789062 238.382812 227.722656 238.71875 226.652344 C 239.652344 223.3125 242.855469 217.96875 245.394531 215.429688 C 246.996094 213.894531 250.398438 211.625 252.9375 210.355469 L 257.675781 208.082031 L 257.675781 163.792969 L 260.078125 163.328125 C 261.414062 163.125 262.683594 163.125 262.949219 163.460938 C 263.148438 163.726562 263.285156 175.21875 263.148438 188.84375 C 262.949219 213.292969 262.949219 213.761719 261.613281 213.761719 C 258.011719 213.761719 253.335938 216.097656 249.730469 219.707031 C 246.128906 223.3125 245.460938 224.648438 243.859375 231.128906 L 243.257812 233.46875 L 133.242188 233.46875 L 132.710938 230.660156 C 131.375 222.84375 124.5 215.566406 116.820312 214.027344 L 113.152344 213.292969 L 112.949219 188.976562 C 112.882812 175.617188 112.949219 164.261719 113.152344 163.859375 C 113.484375 162.859375 114.820312 162.792969 117.089844 163.660156 Z M 260.347656 221.507812 C 258.675781 221.976562 256.542969 223.179688 255.472656 224.113281 C 253.070312 226.453125 250.867188 230.792969 251.132812 233 L 251.335938 234.804688 L 264.683594 234.804688 L 264.886719 228.054688 C 265.085938 220.308594 264.953125 220.171875 260.347656 221.507812 Z M 262.949219 223.378906 C 263.550781 224.046875 263.617188 225.785156 263.285156 229.058594 L 262.816406 233.800781 L 257.875 233.800781 C 252.402344 233.800781 251.601562 233.199219 252.9375 229.925781 C 254.070312 227.320312 256.339844 224.917969 259.011719 223.648438 C 261.949219 222.246094 262.015625 222.246094 262.949219 223.378906 Z M 111.613281 227.921875 L 111.816406 234.804688 L 118.691406 235.003906 L 125.5 235.203125 L 125.5 233 C 125.5 231.796875 124.632812 229.324219 123.632812 227.523438 C 121.5625 223.847656 117.355469 221.109375 113.617188 221.109375 L 111.414062 221.109375 Z M 118.289062 223.847656 C 121.429688 225.519531 124.898438 231.394531 123.832031 233.132812 C 123.5625 233.535156 121.363281 233.800781 118.289062 233.667969 L 113.152344 233.46875 L 112.949219 229.191406 C 112.816406 226.855469 112.882812 224.515625 113.082031 224.046875 C 113.484375 222.914062 116.355469 222.84375 118.289062 223.847656 Z M 118.289062 223.847656 "/>
</g>
</svg>