<svg viewBox="0 0 2048 1448" width="594" height="420" xmlns="http://www.w3.org/2000/svg"><path d="M721 875h606l17 1 11 4 11 8 7 7 5 8 4 12v18l-4 13-8 11-9 8-10 5-3 1-162 1-24 2-23 5-26 9-20 9-19 12-12 9-7 7-8 7-18 18-4-1-25-25-14-11-15-10-10-6-18-8-13-5-15-5-25-5-21-2H711l-12-4-9-6-9-11-7-14-2-9v-9l3-12 6-10 11-12 9-6 11-3zm235 37-1 3 3 6 9 13 1 6-10 15-4 7v3l4-1 8-11 5-7v-2l4 2 6 10 6 8 5 1-1-5-12-20v-7l10-15 1-5-4 1-8 11-3 5v2l-3-1-7-11-6-8zm65 1 2 12 6 21 7 18 4 2 4-4 8-21 7-21 1-7-4 1-5 11-10 30h-2l-11-33-5-9zm74 0-1 1-1 13v37l4-1v-49zM967 230h12l13 5 8 7 4 8v9l-3 6-5-5-4-5-10-1-9 2-11 6-9 9-8 14-5 13-4 19-1 7-1 25 5-3 14-15 8-7 11-12 15-15 7-8 15-16 15-15h5l5 4 7 8 18 18 7 8 11 12 8 8 7 8 9 9 8 7 9 9 2 1-2-24-3-21-5-16-7-14-8-10-11-7-9-3-9-1-5 2-3 3-2 7-4-2-4-7 1-7 6-10 8-6 10-4h11l15 4 10 7 9 9 6 10 5 15 2 10 1 13 1 3 12-12 11-7 11-5 7-2h20l11 4 8 5 11 11 4 11v9l-2 7-4-1v-2l-4-2-8-7-13-4-9 1-12 5-7 5-7 11-2 9v10l3 14 5 13 7 9 10 11 13 8 16 8 15 6 25 7 16 3 48 8 18 6 8 3-6-5-16-8-29-14-15-8-11-8-7-7-8-14-2-7v-11l4 1 6 9 8 8 19 11 23 11 24 10 21 11 13 10 8 8 8 10 8 16 5 15 3 20-1 16-4 19-4 11-3 2-3-17-3-12-9-17-11-12-10-8-8-5-23-9-21-5-25-4-31-3-32-4-17-4-13-5-13-7-11-8-11-10-4-5-2-1v12l-3 16-6 17-7 13-10 13-9 10-7 8-13 13-6 7h-2l-2 4-34 34-3 4v2l42 1 148 2 148 3 75 2 44 2 65 4 50 4 13 2v1h-165l-295 2H640l-165-2-55-1v-2l30-2 41-3 57-3 31-2 68-2 140-3 71-1 40-1 116-1-4-7-43-43-7-8-12-13-7-7-13-17-8-16-5-15-3-20v-7l-14 14-11 8-12 7-15 6-14 4-31 4-35 4-32 5-16 4-19 7-11 6-11 9-7 7-8 11-4 8-4 14-2 20h-2l-5-13-5-21-1-7v-10l2-15 5-16 11-21 12-14 7-7 20-12 29-13 12-5 21-10 11-7 10-9 7-9 3-3 1 1v8l-3 12-6 10-9 10-11 8-14 8-31 14-20 11-2 2 5-1 13-6 35-7 36-6 20-5 20-7 16-8 12-7 10-9 8-11 6-12 4-15v-13l-3-9-4-8-7-6-11-5-7-2-11 1-10 4-7 7-4 5h-2l-2-6v-12l5-10 9-11 8-5 14-4h12l16 3 15 8 10 8 7 8 2-19 4-18 6-12 10-11 14-9zm104 12 2 2 12 3 12 7 10 9 7 11 5 15 4 19h2l-2-20-3-13-6-11-9-10-7-6-9-4-12-2zm-102 1-10 3-11 8-8 9-6 10-4 13-2 15 2 1 6-21 7-13 9-11 8-7 8-3 10-2 1-2zm57 43-8 7-8 8-7 8-35 35-7 8-8 8-9 13-7 14-4 14-1 8v12l2 16 5 13 7 13 11 13 7 7 7 8 5 5h2v2l7 6 7 8 16 16 7 8 11 11 4-2 8-8 7-8 17-17 7-8 16-16 7-8 9-9 10-15 4-8 4-12 2-15-1-20-4-15-6-12-9-13-12-12-7-8-29-29-4-5h-2l-2-4-17-17zm-147 8 4 4 11 8 7 9 5 12 2 9v20l-4 16-4 11-10 14-8 9-6 4-14 10-14 7-21 6-22 4-37 5-36 8-17 5-16 8-10 7-3 4 6-2 7-5 16-7 16-5 39-6 46-6 21-5 21-7 15-8 11-9 12-12 7-11 6-12 5-17v-25l-5-16-4-8-9-10-14-9zm288 2-12 9v2l-3 1-7 11-4 9-2 12v16l3 18 6 15 7 10 9 10 12 11 14 9 23 9 29 6 63 8 23 5 15 5 20 11 6 4-2-4-10-8-16-9-13-4-28-7-30-5-35-5-22-5-15-6-14-8-14-11-7-7-10-15-5-13-3-13-1-8v-9l3-16 6-11 9-10 7-6zM788 835h498l233 1 116 1-3 2-41 3-89 6-79 3-38 1-247 5H884l-226-5-56-2-95-5-88-6v-1l6-1 131-1z" fill="#008F66"/><path d="M715 981h53l41 5 22 6 19 6 19 9 10 8 6 5 9 11 7 10 5 15 4 16v13l-4 16-6 12-5 6 7-6 6-10 5-15v-25l-4-17-8-16-11-13-7-8-14-10-16-7-27-9v-1l7-1h39l8 3 17 12 8 7 11 14 9 16 6 15 2 8 1 9v18l-3 16-5 13-8 14-4 5-11 8-12 6-15 4h-14l-12-3-9-5-5-4-8-11-3-9v-10l2-6 4 1 4 5v2l14 7 3 1h13l17-8 7-9 3-8 1-11-2-14-6-16-5-8-15-15-11-7-17-8-17-6-17-5-25-5-28-3-22-5-14-6zm466 0h44l3 2-39 13-11 7-13 11-10 12-6 10-6 13-3 15-1 11 2 15 3 11 6 12 8 8 14 8-8-6-8-7-6-9-4-10-3-16 1-14 3-14 8-16 9-14 10-9 10-7 15-8 14-5 19-5 22-4 27-4h57l-2 3-14 6-16 3-40 5-25 6-23 8-17 8-15 10-5 4-1 2h-2l-2 4-7 9-5 10-3 9-1 6v16l3 8 6 9 8 6 13 5h9l10-4 9-6 7-7h3v17l-4 11-11 11-8 5-12 3-7 1h-12l-16-6-12-7-11-11-8-13-4-10-3-14-1-16 2-19 7-21 10-16 8-10 11-11 10-7zm28-503h63l26 3 16 4 19 8 11 6 14 12 7 7 7 10 3 5 2 8-1 4-7-11-12-12-14-9-15-5-15-3h-19l-18 2-16 4-19 7-15 7-32 10-24 6-14 2-14 1h-15l-14-1-18-5-11-4v-2l21-6 10-6 11-9 18-11 25-12 19-6zm18 8-24 3-20 6-22 9-17 9-10 6 4 1 29-14 24-7 22-5 25-3 15-1 30-1-2-2-15-1zm-426-9h25l20 1 22 5 23 8 24 12 15 11 11 8 11 5 16 5 1 2-13 5-14 3-7 1h-38l-18-3-30-8-27-9-19-9-29-8-18-2h-10l-14 2-17 5-14 7-10 8-7 8-7 11-3 1 3-10 6-11 9-12 10-9 14-9 18-8 23-6 20-3zm1 8-24 2-2 2h17l21 2 30 4 24 5 16 6 20 9 13 5 2-1-22-13-12-6-27-9-22-4-23-2zM508 853h21l19 3 44 13 14 3 9 1h18l16-5 8-3 4 1-16 12-15 9-12 4-5 1h-30l-39-8-8-1h-9l-10 2-8 5-4 6-2 9 1 10 4 7 10 6 10 4v3l-5 2-7 1h-16l-15-5-10-8-7-8-4-10-1-4v-10l2-9 7-12 9-9 10-6 11-3zm4 15-12 4-10 7-4 5-3 10v19l2 4 1-3v-17l3-8 4-6 6-5 9-3 5-1h21l34 5 16 3h21v-1l-42-7-23-5-7-1zm-14-382h19l11 3-1 3-17 7-4 5-2 5-1 9 1 9 5 8 5 3 14 3h12l18-4 22-5 8-1h19l15 3 19 8 14 10 4 4v2l-6-1-13-5-4-1h-27l-19 4-37 12-15 3h-37l-13-4-8-6-10-11-5-8-2-7v-11l3-12 6-9 9-9 10-5zm-14 25-1 4v17l4 9 5 6 12 6 7 2 9 1h9l17-2 30-7 23-4v-1h-19l-40 7-15 1-15-1-10-3-6-4-6-9-2-7-1-15zm1053-25h15l11 3 9 5 9 7 5 8 2 8v21l-4 10-9 10-8 6-10 5-18 2-24-1-21-5-25-8-19-5-16-2h-10l-15 3-8 4-4 3h-3l2-4 10-10 18-10 14-4 7-1h22l20 4 16 4 15 2h8l10-2 6-4 5-6 3-7v-10l-5-10-8-6-11-4 2-3zm31 25-2 19-3 8-7 7-11 4-8 1h-10l-20-2-24-4-13-2h-19v1l35 6 27 6h28l13-4 8-6 4-5 3-9 1-17zm-44 342h21l14 3 10 5 12 11 5 8 2 6v22l-3 9-5 7-13 9-10 4-5 1h-13l-14-3v-3l13-5 8-7 3-6 1-10-3-9-4-6-6-4-9-2h-11l-15 2-28 6-16 2-17-1-13-3-26-14-7-7-2-4 6 2 8 4 14 3h20l18-3 37-12 19-4zm-1 15-24 4-27 5-22 3-3 2 4 1h9l26-4 27-4 10-1h16l16 4 7 6 4 11 2 16h1v-19l-3-9-6-7-10-5-12-3zm-424 148h3l-2 4-18 12-9 7-8 8-8 14v11l3 10 6 9 6 7 9 7 15 15 12 16 7 11 8 16 6 18 2 9v20h-3l-6-11-7-9-17-10-16-10-10-8-10-9-10-13-7-12-6-15-4-17v-23l4-11 10-14 10-9 11-9 17-9zm-55 70v14l4 16 10 18 11 13 8 7 16 11 15 10v-3l-26-20-10-9-11-15-9-15-4-11-2-15zm-94-70 10 2 12 6 14 8 12 11 10 10 8 15 3 14v9l-3 18-9 21-6 10-8 10-13 13-13 10-11 7-15 8-10 10-6 11h-3l-1-13 2-12 6-20 11-20 8-12 12-15 5-4 7-8 12-11 8-9 3-8 2-12-3-9-6-9v-2l-4-2-13-11-20-13zm58 66-3 17-6 17-7 13-13 16-10 9-19 14-5 4 1 2 17-11 14-10 11-9 8-11 8-16 4-11 2-12v-8zm272-769h12l20 3 19 8 16 10 11 10 6 5 7 8 12 13 10 6 10 4 1 3-10 2-20 1-19-2-18-6-20-10-22-14-10-7-11-6-5-1h-8l-8 4-5 4-4 8v13l4 14 2 6-4-1-5-5-4-9-2-9v-16l4-12 9-10 8-7 12-5zm-2 9v1l23 4 12 4 19 9 12 9 11 10 5 4 2-1-9-10-7-8-14-10-15-7-13-4-6-1z" fill="#008F66"/><path d="m803 1035 5 1 6 9 4 12 1 12-2 10-6 12-10 10-10 6-16 4h-17l-16-3-19-8-13-8-12-9-17-17-7-8-4-4v-2l-12-6-8-3v-2l9-2h31l16 4 13 5 16 8 13 7 18 13 14 7 4 1h8l10-5 6-7 1-3v-14l-3-12zm-110 27 6 8 4 5 8 7 11 8 14 7 13 4 8 1h16v-1l-17-3-21-7-12-6-12-9-13-11-3-3zm60-748h25l11 3 14 7 7 7 6 12 2 9v14l-4 13-6 9-4 1 1-6 4-13v-13l-3-8-4-5-11-4h-9l-8 3-12 8-14 10-22 12-16 7-14 4-6 1h-31l-9-2-1-3 14-5 7-5 12-12 7-8 15-15 18-11 11-5 14-4zm2 8-16 4-9 3-17 11-25 25 5-2 9-7 11-10 11-8 10-5 18-6 9-2 17-1v-2zm495 711 1 2-6 12-2 10 1 12 3 6 9 7 12 2 10-3 15-9 11-8 19-11 18-8 14-4 9-2 16-1 21 2 2 1-1 3-13 5-8 6-9 11-7 7-5 6-14 11-22 13-13 5-9 2-9 1h-12l-16-3-10-5-10-9-6-9-3-7-1-9v-9l2-10 5-10zm112 26-11 9-11 11-13 8-25 10-4 1h-30l2 2 13 2h14l14-3 23-11 10-7 9-9 7-9 3-2z" fill="#008F66"/><path d="m665 873 2 1 1 12v20l-3 15 1 14 4 13 5 9 9 10 10 6 16 8 13 9 16 8 18 8 16 8 12 9 9 8 7 14 3 11v8l-7-6-7-8-8-7-14-8-32-15-30-13-16-10-13-13-10-14-7-15-5-15-2-12v-14l2-12 6-21zm723 1 3 4 4 11 5 21v22l-3 14-5 13-9 16-9 11-10 10-14 9-15 8-15 6-19 8-23 11-10 7-8 7-8 11h-2v-12l3-10 7-11 7-7 13-9 21-11 14-6 16-8 17-10 18-9 10-8 9-14 4-11 1-6v-14l-3-13-2-5 1-16zM764 235l4 2 8 16 7 9 7 7 8 7 8 9 6 10 7 24 2 12-4-2-9-9-20-11-11-9-9-11-4-10-2-11v-19zm14 34 3 6 14 15 7 7 10 13 1-2-6-11-8-10-11-11-8-7zm41 825h2l-1 10-7 21-8 15-11 12-11 9-6 8-10 17h-3l-2-10v-23l5-16 8-11 9-8 20-11 10-8zm-9 23-10 12-4 5-6 5-8 11-3 4 1 2 6-7 10-8 9-11 6-11zm424-23 5 5 8 7 24 13 9 8 5 9 4 11 3 15-1 13-2 12-4-2-9-17-10-11-8-7-5-4-6-8-8-14-5-21zm7 20 3 9 7 10 11 12 9 8h2l-2-5-12-13-9-11-8-10zm45-879h3l2 12v17l-3 15-5 12-11 12-7 6-20 11-10 10-3-1 3-12 4-15 7-14 9-11 10-10 7-6 7-10zm-14 35-17 16-8 10-8 13 1 2 7-7 11-14 11-12 5-7zM647 888h2l-2 8-5 17-3 15-5 10-9 10-13 13-7 12h-2l-2-8-1-16 3-17 4-9 8-11 10-10 10-5zm-16 14-11 13-7 11-5 12 1 3 7-12 11-17 5-8zm218-689 13 2 13 4 11 6 7 6 8 11 6 12 6 17 1 10-4-1-7-7-14-8-12-6-6-5-9-13-6-14-11-11v-2zm20 11 10 10 16 17 7 8 2 1-1-5-6-9-15-16-10-6zm535 665 5 1 18 12 10 9 7 8 4 8 3 9 2 13v10l-3 13-4-2-6-10-16-16-7-11-4-13-3-16-6-12zm20 17 2 6 10 15 7 12h1l-1-8-6-11-7-9zm-229-692h14l-2 4-9 8-10 20-7 9-8 6-24 12-8 9h-1l1-11 5-17 6-11 9-12 5-6 15-7zm-13 10-11 6-7 6-8 10-6 10-1 4 4-2 9-11 9-10 8-8 4-3zM603 452l4 2 8 11 9 10 8 8 6 12 3 12 2 10 6 17-2 1-15-9-9-6-9-9-9-13-3-7-1-7v-23zm5 27v8l3 9 7 11 9 11 4 2-2-5-11-18-8-16zm302 665 4 1-2 9-6 17-6 12-9 11-8 7-10 5-18 4-10 1v-3l8-7 6-10 6-12 7-10 9-6 21-11 5-6zm-6 19-7 7-7 9-9 10-9 8 3 1 9-6 12-12 7-10 2-7zm544-711h3l1 10v19l-4 15-5 10-5 6-8 7-7 6-15 9-4 1 1-5 7-21 4-15 6-12 16-16zm-3 29-10 18-8 11-4 8 4-2 7-8 9-14 3-9zm-305 663 4 1 9 8 23 12 8 7 9 17 6 10 5 5 4 3v3h-12l-16-4-12-6-11-11-8-14-5-12-4-14zm10 21 1 5 8 12 10 10 11 7 4 1-2-4-8-6-10-10-8-10zm-125-857 5 2 28 28 9 11 8 9 5 4-1 2-12-9-10-8-12-11-11-9-6-5-4 1-13 11-11 9-15 14-6 4h-3l1-3 6-5 7-8 32-34zm-25 74h54l1 2v7l-6-4-8-3h-8l-1 24v33l2 11-1 1h-15l3-6v-62h-16l-4 5h-2zm77 87v3l-9 10-5 6-4 4h-2l-1 3-5 4-7 8-8 8-7 8-4 1-11-11-7-8-13-13-7-8-10-10 1-2 10 6 12 11 14 12 12 9 5-2 7-7 10-8 13-11 11-9z" fill="#008F66"/><path d="m1625 586 3 1z" fill="#FDFDFD"/></svg>