<?xml version="1.0" encoding="UTF-8"?>
<svg xmlns="http://www.w3.org/2000/svg" xmlns:xlink="http://www.w3.org/1999/xlink" width="319px" height="250px" viewBox="0 0 298 234" version="1.1">
<g id="surface1">
<path style=" stroke:none;fill-rule:nonzero;fill:rgb(0%,59.215689%,42.745098%);fill-opacity:1;" d="M 150.125 60.75 L 151.246094 61.125 L 155.175781 64.125 L 158.359375 66.5625 L 160.605469 68.25 L 163.226562 70.3125 L 167.15625 73.3125 L 170.527344 75.9375 L 173.335938 78.1875 L 182.132812 84.9375 L 184.003906 86.4375 L 187 88.875 L 190.554688 91.5 L 193.550781 93.9375 L 196.171875 96 L 204.59375 102.5625 L 207.027344 104.4375 L 209.648438 106.5 L 214.515625 110.25 L 217.882812 112.875 L 219.382812 114.1875 L 219.570312 117.75 L 219.757812 198.9375 L 223.3125 198.9375 L 223.6875 198.75 L 223.875 197.8125 L 224.0625 139.125 L 225.183594 139.3125 L 227.617188 141.1875 L 230.800781 143.8125 L 233.796875 146.0625 L 236.414062 148.125 L 239.222656 150.375 L 241.84375 152.25 L 244.839844 154.6875 L 248.019531 157.125 L 250.640625 159.1875 L 253.636719 161.625 L 255.882812 163.3125 L 258.691406 165.5625 L 262.058594 168 L 263.933594 169.5 L 264.679688 170.4375 L 264.867188 175.5 L 264.867188 216 L 264.304688 217.3125 L 263.933594 217.5 L 36.125 217.5 L 35.941406 216.75 L 35.941406 171.75 L 36.3125 170.4375 L 37.25 169.3125 L 40.433594 166.875 L 53.910156 156.375 L 56.71875 154.125 L 59.339844 152.0625 L 66.449219 146.625 L 70.382812 143.625 L 72.066406 142.3125 L 74.5 140.25 L 76.371094 139.125 L 76.746094 139.3125 L 76.933594 143.625 L 77.121094 198.75 L 78.242188 198.9375 L 80.863281 198.9375 L 81.238281 198.75 L 81.425781 197.8125 L 81.425781 161.4375 L 81.613281 118.6875 L 81.800781 114.1875 L 82.734375 113.25 L 84.421875 111.75 L 86.480469 110.25 L 89.101562 108.1875 L 92.46875 105.5625 L 95.089844 103.5 L 96.960938 102 L 99.582031 99.9375 L 102.578125 97.5 L 107.820312 93.5625 L 110.8125 91.125 L 113.808594 88.875 L 116.617188 86.625 L 118.863281 84.9375 L 121.671875 82.6875 L 124.105469 80.8125 L 127.472656 78.1875 L 130.65625 75.75 L 134.023438 73.125 L 137.019531 70.875 L 139.453125 69 L 142.074219 66.9375 L 145.445312 64.3125 L 147.875 62.4375 Z M 148.8125 81.375 L 146.378906 81.9375 L 144.132812 83.0625 L 142.074219 84.75 L 140.390625 87.1875 L 139.453125 89.0625 L 139.078125 90.375 L 138.890625 92.0625 L 138.890625 103.125 L 139.078125 104.4375 L 140.390625 104.625 L 161.542969 104.625 L 162.101562 103.6875 L 162.289062 93.375 L 161.914062 90.375 L 160.980469 87.75 L 159.480469 85.5 L 157.984375 84 L 155.175781 82.3125 L 152.929688 81.5625 L 151.808594 81.375 Z M 146.566406 130.125 L 143.570312 130.875 L 139.640625 132.1875 L 136.832031 133.6875 L 134.210938 135.5625 L 131.589844 138 L 129.160156 141.1875 L 126.910156 145.125 L 125.789062 148.125 L 125.039062 150.9375 L 124.851562 152.25 L 124.851562 185.625 L 125.226562 185.8125 L 147.875 185.8125 L 148.0625 185.625 L 148.25 177.5625 L 148.25 143.625 L 148.0625 130.3125 L 147.875 130.125 Z M 153.117188 130.125 L 152.929688 130.875 L 152.742188 169.875 L 152.742188 185.625 L 152.929688 185.8125 L 175.582031 185.8125 L 176.140625 185.625 L 176.140625 156.1875 L 175.769531 151.125 L 174.832031 147.5625 L 173.335938 143.8125 L 171.089844 140.4375 L 169.402344 138.375 L 166.96875 135.9375 L 164.722656 134.25 L 161.914062 132.5625 L 158.359375 131.25 L 155.363281 130.3125 Z M 59.339844 169.3125 L 57.464844 169.6875 L 55.21875 170.625 L 53.722656 171.75 L 52.597656 173.25 L 51.851562 174.9375 L 51.476562 177 L 51.476562 185.8125 L 53.160156 186 L 67.199219 186.1875 L 67.949219 185.8125 L 68.136719 185.0625 L 68.136719 178.875 L 67.761719 175.875 L 66.636719 173.0625 L 65.515625 171.5625 L 63.644531 170.4375 L 61.023438 169.3125 Z M 240.535156 169.3125 L 238.476562 169.875 L 236.789062 170.625 L 235.292969 171.75 L 233.980469 173.4375 L 233.046875 175.6875 L 232.859375 180.9375 L 233.046875 185.8125 L 233.234375 186 L 249.144531 186 L 249.519531 185.625 L 249.707031 183.375 L 249.707031 178.125 L 249.144531 175.3125 L 248.394531 173.4375 L 247.085938 171.75 L 245.589844 170.4375 L 243.527344 169.6875 L 241.65625 169.3125 Z M 88.164062 190.5 L 86.667969 190.6875 L 86.292969 191.625 L 86.292969 196.5 L 86.480469 198.75 L 87.414062 199.125 L 214.140625 199.125 L 214.515625 198.5625 L 214.703125 197.625 L 214.703125 190.6875 L 207.214844 190.5 Z M 124.105469 203.8125 L 67.199219 204 L 66.636719 204.1875 L 66.636719 210.1875 L 66.824219 212.4375 L 67.949219 212.625 L 229.488281 212.625 L 233.980469 212.4375 L 234.167969 212.25 L 234.355469 206.8125 L 234.355469 204.375 L 234.167969 204.1875 L 228.554688 204 L 169.964844 203.8125 Z M 124.105469 203.8125 "/>
<path style=" stroke:none;fill-rule:nonzero;fill:rgb(0%,59.215689%,42.745098%);fill-opacity:1;" d="M 149.75 48.9375 L 150.871094 48.9375 L 153.492188 50.625 L 159.109375 54.9375 L 166.96875 61.125 L 169.402344 63.1875 L 172.398438 65.4375 L 176.328125 68.4375 L 178.761719 70.3125 L 185.5 75.5625 L 188.121094 77.625 L 190.554688 79.5 L 197.292969 84.75 L 200.101562 87 L 202.722656 89.0625 L 205.71875 91.3125 L 208.523438 93.5625 L 214.140625 97.875 L 216.574219 99.75 L 219.382812 102 L 221.441406 103.5 L 223.875 105.5625 L 226.496094 107.625 L 229.488281 110.0625 L 231.921875 111.9375 L 235.292969 114.5625 L 239.972656 118.3125 L 241.09375 120 L 240.910156 121.5 L 239.785156 122.8125 L 238.476562 122.8125 L 236.601562 121.6875 L 234.542969 120.1875 L 229.304688 116.0625 L 226.496094 113.8125 L 224.25 112.125 L 220.316406 109.125 L 217.324219 106.6875 L 213.765625 104.0625 L 210.769531 101.625 L 207.589844 99.1875 L 204.59375 96.75 L 202.160156 94.875 L 198.792969 92.25 L 195.984375 90 L 192.238281 87.1875 L 189.621094 85.125 L 186.25 82.5 L 184.378906 81 L 181.007812 78.375 L 178.761719 76.6875 L 175.769531 74.25 L 173.335938 72.375 L 170.339844 69.9375 L 167.15625 67.5 L 163.789062 64.875 L 160.605469 62.4375 L 157.796875 60.1875 L 154.617188 57.75 L 152.183594 55.875 L 150.683594 54.75 L 149.75 54.9375 L 147.316406 56.8125 L 140.578125 62.0625 L 138.332031 63.9375 L 135.710938 66 L 132.339844 68.625 L 129.90625 70.5 L 127.097656 72.75 L 122.230469 76.5 L 118.863281 79.125 L 116.429688 81 L 113.433594 83.4375 L 111.375 85.125 L 107.445312 88.125 L 104.449219 90.375 L 102.578125 91.875 L 99.582031 94.3125 L 96.589844 96.5625 L 93.96875 98.625 L 90.972656 100.875 L 88.539062 102.75 L 85.542969 105.1875 L 83.296875 106.875 L 79.929688 109.5 L 75.996094 112.5 L 68.511719 118.5 L 65.328125 120.9375 L 63.832031 122.0625 L 62.144531 122.8125 L 61.023438 122.625 L 59.898438 121.6875 L 59.710938 120.1875 L 60.460938 118.6875 L 62.144531 117.1875 L 64.390625 115.5 L 67.386719 113.0625 L 70.570312 110.625 L 73.375 108.375 L 76.558594 105.9375 L 79.742188 103.3125 L 83.296875 100.6875 L 86.292969 98.25 L 91.160156 94.5 L 94.15625 92.0625 L 96.027344 90.5625 L 99.207031 88.125 L 101.828125 86.0625 L 105.199219 83.4375 L 108.195312 81 L 111.1875 78.75 L 117.925781 73.5 L 121.859375 70.5 L 125.226562 67.875 L 128.222656 65.4375 L 131.40625 63 L 135.335938 60 L 137.582031 58.3125 L 139.828125 56.4375 L 143.011719 54 L 145.628906 51.9375 L 148.8125 49.5 Z M 149.75 48.9375 "/>
<path style=" stroke:none;fill-rule:nonzero;fill:rgb(0%,59.215689%,42.745098%);fill-opacity:1;" d="M 224.25 126.75 L 225.371094 127.125 L 227.992188 129.375 L 230.613281 131.4375 L 233.046875 133.3125 L 235.667969 135.375 L 238.476562 137.625 L 241.65625 140.0625 L 243.902344 141.9375 L 246.898438 144.1875 L 249.707031 146.4375 L 252.328125 148.5 L 254.574219 150.1875 L 257.195312 152.25 L 260 154.5 L 263.558594 157.125 L 266.367188 159.375 L 268.984375 161.4375 L 271.980469 163.875 L 274.601562 165.9375 L 276.660156 167.625 L 278.34375 168.9375 L 279.09375 170.0625 L 279.09375 171.375 L 277.972656 172.875 L 276.847656 173.25 L 274.601562 172.125 L 271.980469 170.25 L 269.171875 168 L 266.738281 166.125 L 263.746094 163.6875 L 261.3125 161.8125 L 258.316406 159.5625 L 255.132812 156.9375 L 252.515625 154.875 L 249.144531 152.25 L 246.710938 150.375 L 244.089844 148.3125 L 241.28125 146.0625 L 238.660156 144 L 235.292969 141.375 L 232.109375 138.9375 L 229.488281 136.875 L 226.121094 134.25 L 224.25 132.75 L 223.875 131.8125 L 224.0625 127.5 Z M 224.25 126.75 "/>
<path style=" stroke:none;fill-rule:nonzero;fill:rgb(0%,59.215689%,42.745098%);fill-opacity:1;" d="M 76.183594 126.9375 L 76.558594 126.9375 L 76.746094 128.625 L 76.746094 132.375 L 75.808594 133.3125 L 73.75 135 L 71.128906 137.0625 L 67.949219 139.3125 L 65.515625 141.375 L 63.082031 143.25 L 60.085938 145.6875 L 53.347656 150.9375 L 50.164062 153.375 L 47.171875 155.8125 L 43.988281 158.25 L 41.929688 159.9375 L 38.558594 162.5625 L 35.941406 164.625 L 32.945312 167.0625 L 30.886719 168.75 L 27.328125 171.375 L 25.457031 172.6875 L 24.707031 173.0625 L 23.210938 173.0625 L 22.273438 172.125 L 21.902344 171.375 L 21.902344 170.0625 L 22.648438 168.9375 L 24.519531 167.25 L 26.394531 165.75 L 31.632812 161.625 L 34.066406 159.75 L 35.941406 158.25 L 38.933594 155.8125 L 45.300781 150.9375 L 49.230469 147.9375 L 52.226562 145.6875 L 55.21875 143.25 L 58.402344 140.8125 L 61.398438 138.375 L 64.203125 136.3125 L 67.199219 133.875 L 70.945312 131.0625 L 74.125 128.4375 Z M 76.183594 126.9375 "/>
<path style=" stroke:none;fill-rule:nonzero;fill:rgb(0%,59.215689%,42.745098%);fill-opacity:1;" d="M 149.75 15.9375 L 151.433594 16.125 L 152.554688 17.0625 L 152.742188 18 L 152.742188 26.8125 L 155.175781 26.8125 L 160.230469 27 L 161.914062 27.375 L 162.289062 28.3125 L 162.289062 29.8125 L 161.730469 31.125 L 161.355469 31.5 L 152.742188 31.5 L 152.929688 44.25 L 152.742188 44.4375 L 148.25 44.4375 L 148.0625 44.25 L 147.875 31.6875 L 140.578125 31.5 L 139.265625 31.125 L 138.519531 30 L 138.519531 28.5 L 139.265625 27.375 L 140.765625 27 L 148.0625 27 L 148.0625 23.4375 L 148.25 17.4375 L 148.8125 16.5 Z M 149.75 15.9375 "/>
<path style=" stroke:none;fill-rule:nonzero;fill:rgb(0%,48.235294%,34.509805%);fill-opacity:1;" d="M 224.25 126.75 L 225.371094 127.125 L 227.992188 129.375 L 230.613281 131.4375 L 233.046875 133.3125 L 235.667969 135.375 L 238.476562 137.625 L 241.65625 140.0625 L 243.902344 141.9375 L 246.898438 144.1875 L 249.707031 146.4375 L 252.328125 148.5 L 254.574219 150.1875 L 257.195312 152.25 L 260 154.5 L 263.558594 157.125 L 266.367188 159.375 L 268.984375 161.4375 L 271.980469 163.875 L 274.601562 165.9375 L 276.660156 167.625 L 278.34375 168.9375 L 279.09375 170.0625 L 279.09375 171.375 L 277.972656 172.875 L 276.847656 173.25 L 274.601562 172.125 L 271.980469 170.25 L 269.171875 168 L 266.738281 166.125 L 263.746094 163.6875 L 261.3125 161.8125 L 258.316406 159.5625 L 255.132812 156.9375 L 252.515625 154.875 L 249.144531 152.25 L 246.710938 150.375 L 244.089844 148.3125 L 241.28125 146.0625 L 238.660156 144 L 235.292969 141.375 L 234.917969 140.8125 L 235.855469 141 L 236.601562 141.75 L 237.164062 141.75 L 237.164062 142.125 L 237.539062 142.3125 L 237.539062 142.6875 L 238.660156 142.875 L 240.347656 144.1875 L 240.535156 144.75 L 241.46875 145.125 L 243.339844 146.4375 L 245.402344 148.125 L 248.394531 150.5625 L 251.015625 152.625 L 253.074219 154.3125 L 254.945312 155.8125 L 257.007812 157.3125 L 259.8125 159.5625 L 262.246094 161.4375 L 264.304688 163.125 L 267.488281 165.5625 L 269.359375 166.875 L 269.359375 167.25 L 270.109375 167.625 L 272.167969 169.125 L 274.039062 170.625 L 276.285156 172.125 L 277.222656 172.3125 L 277.222656 172.6875 L 277.597656 172.3125 L 277.785156 171.1875 L 278.160156 170.25 L 275.910156 168 L 275.910156 167.625 L 274.976562 167.25 L 272.917969 165.5625 L 271.605469 164.4375 L 271.605469 164.0625 L 270.859375 163.6875 L 270.296875 163.5 L 270.296875 163.125 L 269.359375 162.75 L 268.050781 161.625 L 268.050781 161.25 L 267.300781 160.875 L 265.617188 159.75 L 264.679688 158.8125 L 263.933594 158.25 L 263.933594 157.875 L 262.808594 157.5 L 260.9375 155.8125 L 259.066406 154.5 L 256.257812 152.25 L 255.320312 151.6875 L 254.199219 150.75 L 254.199219 150.375 L 253.449219 150 L 251.765625 148.875 L 250.082031 147.375 L 248.019531 145.875 L 246.710938 144.75 L 246.148438 144.5625 L 245.214844 143.625 L 243.714844 142.5 L 243.527344 142.125 L 242.03125 141.375 L 240.722656 140.25 L 240.347656 140.25 L 239.410156 139.3125 L 237.914062 138 L 235.480469 136.125 L 233.796875 134.8125 L 232.484375 133.6875 L 231.921875 133.5 L 231.921875 133.125 L 231.175781 132.75 L 230.238281 132 L 229.863281 131.8125 L 229.863281 131.4375 L 228.929688 131.0625 L 227.242188 129.75 L 225.558594 129.1875 L 224.625 129 L 224.808594 129.75 L 224.808594 130.6875 L 224.996094 131.4375 L 225.371094 131.4375 L 225.371094 131.8125 L 224.996094 131.8125 L 225.746094 132.75 L 227.242188 134.0625 L 229.117188 135.5625 L 231.175781 137.25 L 233.234375 138.75 L 233.609375 138.9375 L 233.609375 139.3125 L 234.167969 139.5 L 234.355469 140.4375 L 233.609375 140.0625 L 230.613281 137.8125 L 227.617188 135.375 L 225.371094 133.6875 L 224.0625 132.5625 L 223.875 131.25 L 224.0625 127.5 Z M 224.25 126.75 "/>
<path style=" stroke:none;fill-rule:nonzero;fill:rgb(0%,48.627451%,34.901962%);fill-opacity:1;" d="M 205.71875 103.6875 L 206.652344 104.0625 L 208.898438 105.9375 L 212.082031 108.375 L 214.515625 110.25 L 217.882812 112.875 L 219.382812 114.1875 L 219.570312 117.75 L 219.757812 198.9375 L 220.503906 199.125 L 220.503906 199.5 L 219.570312 199.3125 L 218.820312 198.5625 L 218.632812 196.875 L 218.632812 181.3125 L 218.445312 170.4375 L 218.445312 115.5 L 218.070312 114.1875 L 215.636719 111.9375 L 215.636719 111.5625 L 214.890625 111.1875 L 213.578125 110.25 L 213.578125 109.875 L 212.832031 109.5 L 211.332031 108.375 L 210.585938 108 L 210.023438 107.25 L 209.085938 106.6875 L 207.027344 105.1875 L 206.652344 104.4375 L 205.71875 104.0625 Z M 205.71875 103.6875 "/>
<path style=" stroke:none;fill-rule:nonzero;fill:rgb(0%,47.843137%,34.117648%);fill-opacity:1;" d="M 149.75 48.9375 L 150.871094 48.9375 L 151.058594 49.3125 L 150.496094 49.5 L 149.5625 50.25 L 148.8125 50.4375 L 148.8125 50.8125 L 145.257812 53.4375 L 144.695312 54 L 144.320312 54 L 144.132812 54.5625 L 143.570312 54.5625 L 143.570312 54.9375 L 142.261719 55.6875 L 141.324219 56.625 L 140.390625 57.1875 L 139.453125 57.5625 L 139.453125 57.9375 L 139.078125 57.9375 L 139.078125 58.3125 L 138.332031 58.5 L 138.332031 58.875 L 137.394531 59.625 L 136.832031 60.1875 L 136.269531 60.1875 L 136.085938 61.125 L 135.335938 61.3125 L 134.210938 62.25 L 133.839844 62.25 L 133.652344 62.8125 L 133.089844 63.375 L 131.964844 63.5625 L 131.964844 63.9375 L 131.40625 64.3125 L 130.84375 64.3125 L 130.84375 64.6875 L 130.46875 64.6875 L 130.46875 65.0625 L 130.09375 65.25 L 129.90625 65.625 L 129.53125 65.4375 L 129.53125 65.8125 L 128.972656 65.8125 L 128.972656 66.1875 L 127.847656 66.9375 L 127.097656 67.3125 L 127.097656 67.6875 L 125.976562 68.4375 L 124.480469 69.5625 L 123.542969 70.3125 L 123.355469 70.6875 L 122.792969 70.6875 L 122.792969 71.0625 L 121.859375 71.625 L 121.484375 71.625 L 121.484375 72 L 121.109375 72 L 121.109375 72.375 L 120.546875 72.5625 L 120.171875 72.9375 L 119.238281 73.6875 L 119.050781 74.0625 L 118.488281 74.0625 L 118.488281 74.4375 L 117.738281 75 L 117.367188 75 L 117.367188 75.375 L 116.242188 76.125 L 116.054688 76.5 L 115.679688 76.5 L 115.492188 76.875 L 113.996094 77.8125 L 113.621094 77.8125 L 113.621094 78.1875 L 112.6875 78.9375 L 112.3125 78.9375 L 112.3125 79.3125 L 111.375 79.875 L 110.8125 80.0625 L 110.625 80.625 L 109.878906 80.8125 L 109.878906 81.1875 L 108.941406 81.9375 L 108.007812 82.5 L 107.632812 82.5 L 107.632812 82.875 L 106.882812 83.0625 L 106.882812 83.4375 L 106.132812 84.1875 L 104.824219 84.9375 L 104.074219 85.3125 L 103.886719 85.875 L 103.328125 86.0625 L 102.390625 87 L 100.519531 88.5 L 100.144531 88.5 L 99.957031 88.875 L 99.207031 89.625 L 98.835938 89.4375 L 98.835938 90 L 98.460938 90 L 98.273438 90.375 L 97.898438 90.75 L 97.148438 90.75 L 97.148438 91.125 L 96.214844 91.875 L 95.839844 91.6875 L 95.839844 92.25 L 95.089844 92.625 L 93.59375 93.5625 L 93.40625 93.9375 L 93.03125 93.9375 L 92.65625 94.6875 L 92.09375 94.875 L 91.722656 95.25 L 90.410156 96.375 L 89.660156 96.75 L 89.476562 97.125 L 88.914062 97.6875 L 88.351562 97.6875 L 88.164062 98.25 L 87.789062 98.0625 L 87.789062 98.4375 L 86.855469 99 L 85.730469 99.75 L 85.355469 99.9375 L 85.355469 100.3125 L 84.796875 100.3125 L 84.796875 100.6875 L 84.421875 100.6875 L 84.421875 101.0625 L 83.671875 101.0625 L 83.484375 101.625 L 82.734375 101.8125 L 82.734375 102.1875 L 82.363281 102.1875 L 82.175781 102.9375 L 81.238281 103.5 L 80.304688 104.25 L 79.929688 104.25 L 79.929688 104.625 L 79.179688 104.8125 L 78.992188 105.375 L 78.617188 105.1875 L 78.617188 105.5625 L 77.496094 105.9375 L 76.746094 106.6875 L 76.371094 106.6875 L 76.183594 107.4375 L 75.625 107.4375 L 75.4375 108 L 74.3125 108.375 L 72.441406 110.0625 L 72.253906 110.4375 L 71.316406 110.8125 L 71.316406 111.1875 L 70.195312 111.75 L 69.820312 111.75 L 69.820312 112.125 L 69.257812 112.3125 L 68.695312 112.875 L 68.136719 113.0625 L 68.136719 112.5 L 70.757812 110.4375 L 74.125 107.8125 L 76.746094 105.75 L 79.742188 103.3125 L 83.296875 100.6875 L 86.292969 98.25 L 91.160156 94.5 L 94.15625 92.0625 L 96.027344 90.5625 L 99.207031 88.125 L 101.828125 86.0625 L 105.199219 83.4375 L 108.195312 81 L 111.1875 78.75 L 117.925781 73.5 L 121.859375 70.5 L 125.226562 67.875 L 128.222656 65.4375 L 131.40625 63 L 135.335938 60 L 137.582031 58.3125 L 139.828125 56.4375 L 143.011719 54 L 145.628906 51.9375 L 148.8125 49.5 Z M 149.75 48.9375 "/>
<path style=" stroke:none;fill-rule:nonzero;fill:rgb(0%,49.803922%,35.686275%);fill-opacity:1;" d="M 89.476562 189.75 L 104.824219 189.75 L 110.253906 189.9375 L 123.355469 189.9375 L 132.152344 189.75 L 168.09375 189.75 L 168.65625 189.9375 L 189.621094 189.9375 L 199.914062 189.75 L 214.515625 189.75 L 214.703125 190.5 L 214.515625 190.6875 L 88.164062 190.6875 L 86.667969 190.875 L 86.480469 191.625 L 86.105469 191.625 L 85.917969 194.625 L 85.542969 194.8125 L 85.730469 190.125 L 86.105469 189.9375 Z M 89.476562 189.75 "/>
<path style=" stroke:none;fill-rule:nonzero;fill:rgb(0%,47.450981%,34.117648%);fill-opacity:1;" d="M 66.636719 146.4375 L 67.386719 146.625 L 66.824219 146.625 L 66.824219 147 L 66.449219 147 L 66.449219 147.375 L 66.078125 147.375 L 66.078125 147.9375 L 65.703125 147.9375 L 65.703125 148.3125 L 65.328125 148.3125 L 65.328125 148.6875 L 64.203125 149.0625 L 64.203125 149.4375 L 63.082031 149.8125 L 62.707031 150.5625 L 62.332031 150.5625 L 61.957031 151.3125 L 61.585938 151.3125 L 61.585938 151.6875 L 60.460938 152.625 L 59.898438 152.4375 L 59.898438 152.8125 L 58.964844 153.5625 L 58.589844 153.5625 L 58.589844 153.9375 L 58.214844 153.9375 L 58.027344 154.5 L 55.78125 156 L 55.21875 156.5625 L 54.84375 156.5625 L 54.660156 157.125 L 53.347656 158.0625 L 52.972656 158.0625 L 52.972656 158.4375 L 49.980469 160.6875 L 47.917969 162.1875 L 47.359375 162.75 L 46.984375 162.75 L 46.984375 163.125 L 46.421875 163.3125 L 46.046875 163.6875 L 44.738281 164.8125 L 43.613281 165.5625 L 43.238281 165.5625 L 43.238281 165.9375 L 42.304688 166.5 L 41.742188 167.0625 L 41.367188 167.0625 L 41.367188 167.4375 L 40.992188 167.4375 L 40.992188 167.8125 L 40.246094 168.1875 L 39.683594 168.1875 L 39.683594 168.5625 L 37.8125 169.875 L 37.4375 170.0625 L 37.25 170.625 L 37.0625 174.5625 L 37.25 178.6875 L 37.25 189.75 L 37.0625 197.8125 L 37.0625 205.3125 L 36.875 208.125 L 36.6875 213 L 36.3125 216.5625 L 36.125 216.5625 L 35.941406 213.75 L 35.941406 171.75 L 36.3125 170.4375 L 37.25 169.3125 L 40.433594 166.875 L 53.910156 156.375 L 56.71875 154.125 L 59.339844 152.0625 L 66.449219 146.625 Z M 66.636719 146.4375 "/>
<path style=" stroke:none;fill-rule:nonzero;fill:rgb(0%,47.843137%,34.509805%);fill-opacity:1;" d="M 151.996094 55.3125 L 153.117188 55.6875 L 154.054688 56.625 L 154.242188 57.1875 L 155.363281 57.5625 L 156.300781 58.125 L 156.300781 58.5 L 157.050781 58.6875 L 158.921875 60.1875 L 160.417969 61.3125 L 165.285156 65.0625 L 168.09375 67.3125 L 169.964844 68.625 L 172.398438 70.5 L 175.207031 72.5625 L 178.199219 75 L 180.820312 77.0625 L 182.878906 78.75 L 185.5 80.8125 L 188.496094 83.0625 L 193.175781 86.8125 L 195.421875 88.5 L 197.105469 90 L 197.667969 90.1875 L 198.417969 90.9375 L 201.785156 93.375 L 204.78125 95.8125 L 206.652344 97.3125 L 209.085938 99.1875 L 210.769531 100.5 L 213.390625 102.5625 L 215.265625 104.0625 L 217.695312 105.9375 L 219.570312 107.4375 L 221.253906 108.75 L 222.75 109.6875 L 223.6875 110.625 L 225.183594 111.75 L 226.121094 112.6875 L 226.308594 113.0625 L 225.371094 113.0625 L 222.5625 110.8125 L 220.316406 109.125 L 217.324219 106.6875 L 213.765625 104.0625 L 210.769531 101.625 L 207.589844 99.1875 L 204.59375 96.75 L 202.160156 94.875 L 198.792969 92.25 L 195.984375 90 L 192.238281 87.1875 L 189.621094 85.125 L 186.25 82.5 L 184.378906 81 L 181.007812 78.375 L 178.761719 76.6875 L 175.769531 74.25 L 173.335938 72.375 L 170.339844 69.9375 L 167.15625 67.5 L 163.789062 64.875 L 160.605469 62.4375 L 157.796875 60.1875 L 154.617188 57.75 L 152.183594 55.875 Z M 151.996094 55.3125 "/>
<path style=" stroke:none;fill-rule:nonzero;fill:rgb(0%,47.843137%,34.509805%);fill-opacity:1;" d="M 63.457031 136.875 L 63.832031 136.875 L 63.832031 137.4375 L 63.082031 137.625 L 62.894531 138.1875 L 61.585938 139.5 L 61.210938 139.5 L 61.023438 140.0625 L 60.273438 140.625 L 59.898438 140.625 L 59.339844 140.8125 L 59.339844 141.1875 L 58.777344 141.5625 L 58.214844 141.5625 L 58.214844 142.125 L 57.464844 142.3125 L 57.464844 142.6875 L 56.90625 143.0625 L 56.34375 143.0625 L 56.34375 143.4375 L 55.96875 143.4375 L 55.96875 143.8125 L 54.84375 144.5625 L 54.472656 144.5625 L 54.472656 144.9375 L 54.097656 144.9375 L 54.097656 145.3125 L 53.722656 145.3125 L 53.722656 145.6875 L 53.160156 145.6875 L 53.160156 146.0625 L 52.410156 146.4375 L 51.851562 147 L 50.351562 147.9375 L 50.164062 148.3125 L 49.605469 148.3125 L 49.605469 148.6875 L 48.480469 149.25 L 48.105469 149.8125 L 47.730469 149.8125 L 47.730469 150.1875 L 46.234375 151.5 L 45.484375 151.6875 L 45.484375 152.0625 L 43.425781 153.5625 L 42.492188 154.5 L 38.933594 157.125 L 36.5 159.1875 L 35.941406 159.1875 L 35.941406 159.5625 L 35.003906 160.125 L 34.628906 160.125 L 34.628906 160.5 L 34.253906 160.5 L 34.066406 161.0625 L 32.570312 162.1875 L 32.195312 162.1875 L 32.195312 162.5625 L 31.632812 162.5625 L 31.261719 163.3125 L 30.136719 164.0625 L 29.761719 164.0625 L 29.761719 164.4375 L 28.453125 165.1875 L 26.769531 166.5 L 26.207031 167.0625 L 25.832031 167.0625 L 25.832031 167.4375 L 25.457031 167.4375 L 25.457031 167.8125 L 25.082031 167.8125 L 25.082031 168.1875 L 23.773438 169.125 L 22.835938 169.3125 L 22.835938 169.6875 L 23.210938 169.875 L 23.023438 171.5625 L 23.960938 171.1875 L 24.335938 172.125 L 25.644531 171.9375 L 25.644531 171.375 L 27.703125 169.875 L 29.949219 168 L 30.511719 168 L 30.511719 167.625 L 30.886719 167.625 L 30.886719 167.25 L 32.382812 166.125 L 34.253906 164.625 L 35.003906 163.875 L 35.566406 163.875 L 35.566406 163.5 L 36.3125 163.3125 L 36.3125 162.9375 L 37.25 162.5625 L 38.1875 161.625 L 38.558594 161.625 L 38.558594 161.25 L 38.933594 161.25 L 38.933594 160.875 L 40.804688 159.375 L 41.554688 159.1875 L 41.554688 158.8125 L 42.679688 158.0625 L 43.054688 158.0625 L 43.054688 157.6875 L 43.800781 157.5 L 44.738281 156.5625 L 45.300781 156.75 L 45.484375 156 L 46.609375 155.8125 L 46.421875 155.0625 L 46.796875 155.0625 L 46.796875 154.6875 L 47.359375 154.6875 L 47.546875 154.3125 L 48.480469 154.3125 L 48.105469 155.0625 L 44.925781 157.5 L 41.929688 159.9375 L 38.558594 162.5625 L 35.941406 164.625 L 32.945312 167.0625 L 30.886719 168.75 L 27.328125 171.375 L 25.457031 172.6875 L 24.707031 173.0625 L 23.210938 173.0625 L 22.273438 172.125 L 21.902344 171.375 L 21.902344 170.0625 L 22.648438 168.9375 L 24.519531 167.25 L 26.394531 165.75 L 31.632812 161.625 L 34.066406 159.75 L 35.941406 158.25 L 38.933594 155.8125 L 45.300781 150.9375 L 49.230469 147.9375 L 52.226562 145.6875 L 55.21875 143.25 L 58.402344 140.8125 L 61.398438 138.375 Z M 63.457031 136.875 "/>
<path style=" stroke:none;fill-rule:nonzero;fill:rgb(0%,48.627451%,34.901962%);fill-opacity:1;" d="M 224.0625 139.125 L 225.183594 139.3125 L 227.617188 141.1875 L 230.800781 143.8125 L 233.796875 146.0625 L 236.414062 148.125 L 239.222656 150.375 L 241.84375 152.25 L 244.839844 154.6875 L 248.019531 157.125 L 250.640625 159.1875 L 253.636719 161.625 L 255.882812 163.3125 L 258.691406 165.5625 L 262.058594 168 L 263.933594 169.5 L 264.679688 170.4375 L 264.867188 175.5 L 264.867188 206.625 L 264.679688 214.5 L 264.492188 214.5 L 264.121094 198.375 L 264.121094 171.375 L 263.933594 170.625 L 262.433594 169.5 L 261.3125 168.75 L 261.3125 168.375 L 260.5625 168 L 258.878906 166.6875 L 258.878906 166.3125 L 257.941406 165.9375 L 256.257812 164.625 L 254.574219 163.5 L 254.574219 163.125 L 253.824219 162.75 L 251.953125 161.0625 L 250.082031 159.75 L 248.207031 158.25 L 246.335938 156.9375 L 245.402344 156.1875 L 244.464844 155.625 L 244.464844 155.25 L 243.714844 154.875 L 241.65625 153.1875 L 240.160156 151.875 L 238.476562 150.5625 L 238.476562 150.1875 L 237.351562 149.8125 L 236.042969 148.875 L 236.042969 148.5 L 235.292969 148.125 L 232.859375 146.25 L 231.550781 145.125 L 229.675781 144 L 228.742188 143.25 L 226.496094 141.5625 L 225.558594 141.1875 L 224.996094 141.75 L 224.996094 142.3125 L 224.625 142.3125 L 224.625 150 L 224.25 150.75 L 224.0625 143.8125 Z M 224.0625 139.125 "/>
<path style=" stroke:none;fill-rule:nonzero;fill:rgb(0%,47.843137%,34.117648%);fill-opacity:1;" d="M 140.949219 61.125 L 141.324219 61.125 L 141.324219 61.5 L 139.265625 63.1875 L 136.644531 65.25 L 133.839844 67.5 L 128.972656 71.25 L 118.863281 79.125 L 116.429688 81 L 113.433594 83.4375 L 111.375 85.125 L 107.445312 88.125 L 104.449219 90.375 L 102.578125 91.875 L 99.582031 94.3125 L 96.589844 96.5625 L 93.96875 98.625 L 90.972656 100.875 L 89.289062 102.1875 L 88.914062 102.1875 L 88.726562 101.4375 L 90.222656 100.3125 L 90.597656 100.3125 L 90.597656 99.9375 L 91.535156 99.1875 L 91.910156 98.8125 L 93.21875 97.6875 L 94.714844 96.5625 L 96.402344 95.4375 L 96.960938 94.6875 L 97.335938 94.6875 L 98.648438 93.375 L 99.207031 93.375 L 99.207031 93 L 100.332031 92.25 L 100.707031 92.25 L 100.894531 91.6875 L 101.828125 91.125 L 102.203125 91.125 L 102.203125 90.75 L 102.578125 90.75 L 102.578125 90.375 L 103.699219 89.625 L 104.636719 88.6875 L 106.320312 87.75 L 107.257812 86.8125 L 107.632812 86.8125 L 107.632812 86.4375 L 108.566406 85.875 L 108.941406 85.875 L 108.941406 85.5 L 110.066406 84.75 L 111 83.8125 L 113.621094 81.9375 L 114.558594 81.375 L 115.304688 80.625 L 115.679688 80.625 L 115.679688 80.25 L 116.429688 79.6875 L 116.804688 79.6875 L 116.804688 79.3125 L 118.675781 78 L 119.425781 77.625 L 119.425781 77.25 L 119.800781 77.25 L 119.800781 76.875 L 121.296875 75.9375 L 121.671875 75.9375 L 122.046875 75.1875 L 124.105469 73.6875 L 124.664062 73.6875 L 125.039062 72.9375 L 126.539062 72 L 127.285156 71.25 L 127.660156 71.25 L 128.035156 70.5 L 128.410156 70.5 L 128.410156 70.125 L 129.90625 69.1875 L 130.28125 69.1875 L 130.65625 68.4375 L 131.40625 68.0625 L 131.964844 68.0625 L 132.339844 67.125 L 133.464844 66.5625 L 134.210938 65.8125 L 134.773438 65.8125 L 134.773438 65.4375 L 135.710938 64.875 L 135.898438 64.5 L 136.269531 64.5 L 136.269531 64.125 L 137.394531 63.5625 L 138.332031 63.1875 L 138.332031 62.8125 L 139.078125 62.625 L 139.078125 62.25 Z M 140.949219 61.125 "/>
<path style=" stroke:none;fill-rule:nonzero;fill:rgb(0%,47.843137%,34.117648%);fill-opacity:1;" d="M 59.339844 168.5625 L 62.332031 168.9375 L 64.578125 169.875 L 66.078125 171 L 67.386719 172.5 L 68.511719 175.125 L 68.695312 175.6875 L 68.882812 178.875 L 68.882812 186.1875 L 68.511719 186.75 L 51.851562 186.75 L 50.914062 186.1875 L 50.726562 185.625 L 50.539062 176.8125 L 51.101562 174.1875 L 52.226562 171.9375 L 53.722656 170.625 L 55.59375 169.5 L 57.839844 168.75 Z M 59.339844 169.3125 L 57.464844 169.6875 L 55.21875 170.625 L 53.722656 171.75 L 52.597656 173.25 L 51.851562 174.9375 L 51.476562 177 L 51.476562 185.8125 L 53.160156 186 L 67.199219 186.1875 L 67.949219 185.8125 L 68.136719 185.0625 L 68.136719 178.875 L 67.761719 175.875 L 66.636719 173.0625 L 65.515625 171.5625 L 63.644531 170.4375 L 61.023438 169.3125 Z M 59.339844 169.3125 "/>
<path style=" stroke:none;fill-rule:nonzero;fill:rgb(0%,47.450981%,34.117648%);fill-opacity:1;" d="M 150.125 80.625 L 152.183594 80.625 L 154.988281 81.375 L 157.609375 82.6875 L 159.480469 84.375 L 160.792969 86.0625 L 161.730469 88.125 L 162.101562 89.4375 L 162.289062 91.5 L 161.914062 91.3125 L 161.355469 89.0625 L 160.230469 86.8125 L 158.921875 85.125 L 157.421875 83.8125 L 154.804688 82.3125 L 151.808594 81.5625 L 148.8125 81.5625 L 146.378906 82.125 L 144.132812 83.25 L 142.261719 84.75 L 140.578125 87.1875 L 139.640625 89.0625 L 139.265625 90.375 L 139.078125 92.0625 L 139.078125 104.4375 L 159.667969 104.625 L 159.480469 105 L 142.824219 105.1875 L 138.890625 105 L 138.144531 104.4375 L 137.957031 102.9375 L 137.957031 96.75 L 138.332031 90.9375 L 139.078125 87.9375 L 140.390625 85.6875 L 142.449219 83.4375 L 144.882812 81.75 L 146.003906 81.1875 L 147.503906 80.8125 Z M 150.125 80.625 "/>
<path style=" stroke:none;fill-rule:nonzero;fill:rgb(0%,48.627451%,34.901962%);fill-opacity:1;" d="M 239.410156 168.75 L 243.339844 168.75 L 245.214844 169.3125 L 247.085938 170.625 L 248.582031 172.3125 L 249.707031 174.5625 L 249.894531 175.6875 L 249.894531 178.3125 L 249.519531 178.125 L 248.957031 175.3125 L 248.207031 173.4375 L 246.898438 171.75 L 245.589844 170.625 L 243.527344 169.875 L 241.65625 169.5 L 239.597656 169.6875 L 236.976562 170.625 L 235.292969 171.9375 L 234.167969 173.4375 L 233.234375 175.6875 L 233.046875 180.9375 L 233.234375 185.8125 L 249.144531 185.8125 L 249.707031 184.5 L 249.894531 184.5 L 249.894531 186.375 L 248.769531 186.75 L 233.421875 186.75 L 232.296875 186.1875 L 231.921875 183.375 L 231.921875 178.3125 L 232.296875 175.125 L 233.046875 173.0625 L 234.355469 171.375 L 235.667969 170.25 L 237.539062 169.3125 Z M 239.410156 168.75 "/>
<path style=" stroke:none;fill-rule:nonzero;fill:rgb(0%,47.843137%,34.117648%);fill-opacity:1;" d="M 138.703125 69.5625 L 139.078125 69.75 L 138.703125 70.3125 L 138.144531 70.5 L 137.957031 71.4375 L 137.019531 71.8125 L 136.457031 71.8125 L 136.457031 72.1875 L 136.085938 72.1875 L 136.085938 72.5625 L 135.710938 72.5625 L 135.710938 72.9375 L 134.773438 73.3125 L 134.398438 74.0625 L 134.023438 74.0625 L 134.023438 74.4375 L 133.464844 74.4375 L 133.464844 74.8125 L 133.089844 74.8125 L 133.089844 75.1875 L 132.527344 75.75 L 132.152344 75.75 L 132.152344 76.125 L 131.589844 76.125 L 131.40625 76.5 L 129.34375 78 L 128.597656 78.375 L 128.222656 79.125 L 124.664062 81.5625 L 124.292969 81.5625 L 124.292969 81.9375 L 123.542969 82.3125 L 123.355469 82.6875 L 122.792969 82.6875 L 122.792969 83.0625 L 122.230469 83.0625 L 121.859375 83.8125 L 120.546875 84.9375 L 119.984375 85.125 L 119.050781 86.0625 L 118.488281 86.25 L 118.488281 86.625 L 117.925781 86.625 L 117.738281 87 L 116.804688 87.375 L 116.429688 88.125 L 115.121094 89.25 L 114.746094 89.25 L 114.183594 89.8125 L 113.808594 89.8125 L 113.808594 90.1875 L 113.058594 90.1875 L 112.875 90.9375 L 111.9375 91.5 L 111.375 92.0625 L 111 92.0625 L 111 92.4375 L 110.441406 92.4375 L 110.441406 92.8125 L 109.878906 93.1875 L 109.316406 93.1875 L 109.316406 93.5625 L 108.753906 93.5625 L 108.378906 94.3125 L 107.070312 95.4375 L 106.320312 95.4375 L 106.132812 96.1875 L 105.574219 96.1875 L 105.574219 96.5625 L 105.011719 97.125 L 104.636719 97.125 L 104.636719 97.5 L 103.328125 98.25 L 102.390625 99 L 102.015625 99 L 101.828125 99.5625 L 100.519531 100.125 L 98.648438 101.4375 L 98.460938 101.8125 L 97.523438 102.1875 L 96.960938 102.375 L 97.148438 101.8125 L 99.582031 99.9375 L 102.578125 97.5 L 107.820312 93.5625 L 110.8125 91.125 L 113.808594 88.875 L 116.617188 86.625 L 118.863281 84.9375 L 121.671875 82.6875 L 124.105469 80.8125 L 127.472656 78.1875 L 130.65625 75.75 L 134.023438 73.125 L 137.019531 70.875 Z M 138.703125 69.5625 "/>
<path style=" stroke:none;fill-rule:nonzero;fill:rgb(0%,48.235294%,34.509805%);fill-opacity:1;" d="M 172.585938 65.8125 L 173.335938 66.1875 L 176.890625 68.8125 L 179.886719 71.25 L 182.132812 72.9375 L 185.5 75.5625 L 188.121094 77.625 L 190.554688 79.5 L 197.292969 84.75 L 200.101562 87 L 202.722656 89.0625 L 205.71875 91.3125 L 208.523438 93.5625 L 214.140625 97.875 L 216.574219 99.75 L 219.382812 102 L 221.441406 103.5 L 223.875 105.5625 L 226.496094 107.625 L 229.488281 110.0625 L 229.863281 110.25 L 229.675781 110.625 L 228.367188 110.0625 L 228.367188 109.6875 L 227.617188 109.3125 L 227.054688 109.125 L 227.054688 108.75 L 226.308594 108.375 L 225.746094 107.8125 L 225.746094 107.4375 L 224.996094 107.0625 L 222.9375 105.75 L 221.628906 104.625 L 220.878906 104.25 L 220.878906 103.875 L 219.945312 103.5 L 218.257812 102 L 216.199219 100.5 L 214.515625 99.1875 L 214.140625 99 L 214.140625 98.625 L 213.203125 98.25 L 211.519531 96.75 L 211.519531 96.375 L 210.585938 96 L 208.898438 94.875 L 208.339844 94.3125 L 208.339844 93.9375 L 207.589844 93.5625 L 205.53125 92.0625 L 205.53125 91.6875 L 204.78125 91.3125 L 203.285156 90.375 L 202.722656 89.8125 L 202.347656 89.625 L 202.347656 89.25 L 201.410156 88.875 L 200.101562 87.75 L 199.351562 87.375 L 199.351562 87 L 198.605469 86.625 L 197.667969 85.875 L 195.796875 84.75 L 195.796875 84.375 L 195.046875 84 L 193.550781 82.6875 L 192.054688 81.5625 L 190.929688 80.625 L 189.246094 79.5 L 187.933594 78.375 L 185.875 76.875 L 184.378906 75.375 L 182.132812 73.875 L 180.820312 72.5625 L 179.699219 71.8125 L 178.199219 70.6875 L 176.515625 69.1875 L 175.019531 68.0625 L 172.585938 66.1875 Z M 172.585938 65.8125 "/>
<path style=" stroke:none;fill-rule:nonzero;fill:rgb(0%,48.235294%,34.509805%);fill-opacity:1;" d="M 154.054688 63.5625 L 154.988281 63.9375 L 157.796875 66.1875 L 160.417969 68.0625 L 163.414062 70.5 L 166.96875 73.125 L 169.777344 75.375 L 172.398438 77.4375 L 175.769531 80.0625 L 182.132812 84.9375 L 184.003906 86.4375 L 187 88.875 L 190.554688 91.5 L 193.550781 93.9375 L 196.171875 96 L 204.59375 102.5625 L 205.15625 102.9375 L 205.15625 103.3125 L 204.78125 103.3125 L 204.78125 102.9375 L 204.03125 102.75 L 203.097656 102.1875 L 203.097656 101.8125 L 202.347656 101.4375 L 201.039062 100.5 L 200.101562 99.9375 L 198.792969 98.8125 L 197.292969 97.875 L 195.796875 96.5625 L 194.300781 95.625 L 192.425781 93.9375 L 190.929688 93 L 190.929688 92.625 L 189.992188 92.25 L 189.992188 91.875 L 189.246094 91.5 L 187.558594 90.375 L 187.558594 90 L 186.8125 89.625 L 186.25 89.25 L 186.25 88.875 L 185.5 88.5 L 183.816406 87.375 L 180.820312 84.9375 L 178.761719 83.25 L 178.015625 82.6875 L 177.078125 82.125 L 174.644531 80.0625 L 174.082031 79.875 L 174.082031 79.5 L 173.148438 79.125 L 171.648438 77.625 L 169.777344 76.3125 L 167.90625 74.8125 L 166.59375 74.0625 L 165.472656 73.125 L 165.472656 72.75 L 164.722656 72.375 L 163.039062 71.0625 L 160.605469 69 L 158.546875 67.3125 L 157.609375 66.75 L 157.421875 66.375 L 156.863281 66.1875 L 156.863281 65.8125 L 156.488281 65.8125 L 156.488281 65.4375 L 155.925781 65.4375 L 154.988281 64.5 L 154.617188 64.3125 L 154.617188 63.9375 L 154.054688 63.75 Z M 154.054688 63.5625 "/>
<path style=" stroke:none;fill-rule:nonzero;fill:rgb(0%,47.450981%,34.117648%);fill-opacity:1;" d="M 153.492188 129.375 L 156.488281 129.9375 L 158.171875 130.3125 L 160.417969 131.0625 L 163.414062 132.5625 L 166.410156 134.25 L 166.96875 134.625 L 166.96875 135 L 167.71875 135.375 L 168.65625 136.125 L 168.65625 136.5 L 169.027344 136.5 L 169.027344 136.875 L 169.777344 137.25 L 171.460938 139.5 L 172.773438 141.375 L 174.457031 144.5625 L 175.207031 146.25 L 175.769531 148.3125 L 175.953125 150 L 175.582031 150.375 L 175.019531 148.875 L 173.707031 145.125 L 172.585938 142.875 L 170.339844 139.6875 L 168.28125 137.4375 L 167.71875 136.875 L 167.71875 136.5 L 166.96875 136.125 L 164.722656 134.4375 L 161.914062 132.75 L 158.359375 131.4375 L 155.363281 130.5 L 153.117188 130.125 L 152.929688 131.625 L 152.742188 136.875 L 152.554688 152.0625 L 152.371094 153.1875 L 152.183594 153.1875 L 152.183594 131.8125 L 152.554688 129.5625 Z M 153.492188 129.375 "/>
<path style=" stroke:none;fill-rule:nonzero;fill:rgb(0%,47.450981%,33.725491%);fill-opacity:1;" d="M 79.554688 202.875 L 97.523438 203.0625 L 99.394531 203.25 L 101.269531 203.625 L 101.269531 203.8125 L 89.476562 204 L 66.636719 204.1875 L 66.824219 212.4375 L 67.949219 212.4375 L 68.136719 212.8125 L 67.386719 213 L 66.449219 212.4375 L 66.078125 211.5 L 66.078125 203.25 L 68.511719 203.0625 Z M 79.554688 202.875 "/>
<path style=" stroke:none;fill-rule:nonzero;fill:rgb(0%,47.450981%,34.117648%);fill-opacity:1;" d="M 146.753906 129.375 L 147.875 129.375 L 148.0625 129.9375 L 143.945312 130.875 L 139.640625 132.375 L 136.832031 133.875 L 134.210938 135.75 L 131.777344 138 L 129.34375 141.1875 L 127.097656 145.125 L 125.976562 148.125 L 125.226562 150.9375 L 124.851562 154.6875 L 124.664062 171.5625 L 124.292969 170.8125 L 124.292969 155.8125 L 124.480469 153 L 124.480469 150.5625 L 124.851562 150.5625 L 124.664062 149.25 L 124.851562 147.9375 L 125.039062 147.75 L 125.226562 146.4375 L 127.097656 143.0625 L 128.410156 141 L 130.46875 138.375 L 133.839844 135 L 134.210938 135 L 134.398438 134.4375 L 137.019531 132.75 L 140.578125 130.875 L 142.636719 130.125 L 145.070312 129.5625 Z M 146.753906 129.375 "/>
<path style=" stroke:none;fill-rule:nonzero;fill:rgb(0%,47.450981%,34.117648%);fill-opacity:1;" d="M 221.441406 203.0625 L 230.425781 203.0625 L 234.917969 203.25 L 235.105469 205.6875 L 235.105469 212.4375 L 234.917969 212.8125 L 233.609375 212.8125 L 233.609375 212.4375 L 233.980469 212.25 L 234.167969 206.8125 L 234.167969 204.375 L 228.554688 204.1875 L 199.351562 203.8125 L 199.351562 203.625 L 202.347656 203.25 Z M 221.441406 203.0625 "/>
<path style=" stroke:none;fill-rule:nonzero;fill:rgb(0%,47.058824%,33.725491%);fill-opacity:1;" d="M 76.558594 144.9375 L 76.746094 144.9375 L 76.933594 151.3125 L 77.121094 198.75 L 77.871094 199.3125 L 76.558594 199.3125 L 76.371094 194.8125 L 76.183594 159 L 76.183594 148.875 Z M 76.558594 144.9375 "/>
<path style=" stroke:none;fill-rule:nonzero;fill:rgb(0%,47.843137%,34.117648%);fill-opacity:1;" d="M 89.476562 189.75 L 104.824219 189.75 L 110.253906 189.9375 L 120.359375 190.125 L 120.359375 190.5 L 88.164062 190.6875 L 86.667969 190.875 L 86.480469 191.625 L 86.105469 191.625 L 85.917969 194.625 L 85.542969 194.8125 L 85.730469 190.125 L 86.105469 189.9375 Z M 89.476562 189.75 "/>
<path style=" stroke:none;fill-rule:nonzero;fill:rgb(0%,47.450981%,34.117648%);fill-opacity:1;" d="M 199.726562 189.75 L 214.515625 189.75 L 214.703125 190.5 L 214.515625 190.6875 L 207.214844 190.6875 L 172.773438 190.3125 L 172.960938 189.9375 L 189.621094 189.9375 Z M 199.726562 189.75 "/>
<path style=" stroke:none;fill-rule:nonzero;fill:rgb(0%,47.058824%,33.725491%);fill-opacity:1;" d="M 36.125 216.75 L 37.0625 217.125 L 60.273438 216.9375 L 70.007812 216.9375 L 70.007812 217.125 L 69.070312 217.3125 L 65.140625 217.5 L 36.125 217.5 Z M 36.125 216.75 "/>
<path style=" stroke:none;fill-rule:nonzero;fill:rgb(0%,47.058824%,33.725491%);fill-opacity:1;" d="M 224.25 171.1875 L 224.625 171.5625 L 224.625 172.5 L 224.808594 172.875 L 224.808594 178.3125 L 224.625 182.4375 L 224.625 196.3125 L 224.4375 198.75 L 224.0625 199.5 L 223.125 199.5 L 223.3125 198.9375 L 223.6875 198.75 L 223.875 197.8125 L 224.0625 179.625 Z M 224.25 171.1875 "/>
<path style=" stroke:none;fill-rule:nonzero;fill:rgb(0%,47.058824%,33.725491%);fill-opacity:1;" d="M 227.617188 216.9375 L 237.351562 216.9375 L 255.695312 217.125 L 262.621094 217.3125 L 262.621094 217.5 L 234.730469 217.5 L 227.242188 217.3125 Z M 227.617188 216.9375 "/>
<path style=" stroke:none;fill-rule:nonzero;fill:rgb(0%,48.235294%,34.509805%);fill-opacity:1;" d="M 152.371094 50.0625 L 153.304688 50.4375 L 155.925781 52.5 L 159.109375 54.9375 L 166.96875 61.125 L 168.65625 62.625 L 168.09375 62.625 L 166.96875 62.0625 L 166.96875 61.6875 L 166.035156 61.3125 L 165.660156 61.125 L 165.660156 60.75 L 164.910156 60.375 L 164.910156 60 L 164.160156 59.625 L 163.039062 58.6875 L 162.476562 58.3125 L 162.476562 57.9375 L 161.542969 57.5625 L 161.542969 57.1875 L 160.792969 57 L 159.855469 56.4375 L 159.855469 56.0625 L 159.109375 55.6875 L 158.734375 54.9375 L 158.171875 55.125 L 157.609375 54.5625 L 157.609375 54.1875 L 156.488281 53.8125 L 154.988281 52.5 L 154.617188 52.3125 L 154.617188 51.9375 L 153.867188 51.5625 L 152.742188 50.8125 L 152.742188 50.4375 L 152.371094 50.4375 Z M 152.371094 50.0625 "/>
<path style=" stroke:none;fill-rule:nonzero;fill:rgb(0%,48.235294%,34.509805%);fill-opacity:1;" d="M 61.957031 117.375 L 62.894531 117.375 L 62.707031 117.9375 L 61.585938 118.6875 L 61.210938 119.625 L 60.648438 120 L 61.210938 121.125 L 61.957031 121.6875 L 62.519531 122.0625 L 62.519531 122.625 L 61.398438 122.8125 L 60.273438 122.0625 L 59.710938 121.125 L 59.898438 119.625 L 61.023438 118.125 Z M 61.957031 117.375 "/>
<path style=" stroke:none;fill-rule:nonzero;fill:rgb(0%,49.019608%,34.901962%);fill-opacity:1;" d="M 69.445312 132.1875 L 69.820312 132.1875 L 69.820312 132.5625 L 68.882812 133.5 L 68.511719 134.25 L 67.199219 135.1875 L 66.636719 135.1875 L 66.636719 135.5625 L 66.078125 135.5625 L 65.703125 136.3125 L 64.953125 136.3125 L 64.953125 136.6875 L 64.019531 137.0625 L 64.019531 136.5 L 66.449219 134.4375 Z M 69.445312 132.1875 "/>
<path style=" stroke:none;fill-rule:nonzero;fill:rgb(0%,48.235294%,34.509805%);fill-opacity:1;" d="M 76.371094 139.125 L 76.746094 139.3125 L 76.746094 141.75 L 76.371094 141.9375 L 75.625 141.75 L 75.625 141.375 L 73.9375 141.5625 L 73.9375 140.8125 L 75.625 139.5 Z M 76.371094 139.125 "/>
<path style=" stroke:none;fill-rule:nonzero;fill:rgb(0%,49.019608%,35.294119%);fill-opacity:1;" d="M 227.617188 216.9375 L 237.351562 216.9375 L 239.222656 217.125 L 239.222656 217.5 L 234.730469 217.5 L 227.242188 217.3125 Z M 227.617188 216.9375 "/>
<path style=" stroke:none;fill-rule:nonzero;fill:rgb(0%,49.803922%,35.686275%);fill-opacity:1;" d="M 60.273438 216.9375 L 70.007812 216.9375 L 70.007812 217.125 L 69.070312 217.3125 L 65.140625 217.5 L 59.152344 217.5 Z M 60.273438 216.9375 "/>
<path style=" stroke:none;fill-rule:nonzero;fill:rgb(0%,48.627451%,34.901962%);fill-opacity:1;" d="M 74.3125 107.625 L 74.6875 107.8125 L 73.375 109.3125 L 72.253906 110.25 L 71.691406 110.8125 L 71.316406 110.8125 L 71.316406 111.1875 L 70.195312 111.75 L 69.820312 111.75 L 69.820312 112.125 L 69.257812 112.3125 L 68.695312 112.875 L 68.136719 113.0625 L 68.136719 112.5 L 70.757812 110.4375 L 74.125 107.8125 Z M 74.3125 107.625 "/>
<path style=" stroke:none;fill-rule:nonzero;fill:rgb(0%,49.411765%,35.294119%);fill-opacity:1;" d="M 62.894531 142.6875 L 63.457031 142.875 L 61.769531 144.375 L 60.085938 145.6875 L 58.214844 147.1875 L 57.464844 147.1875 L 57.464844 146.8125 L 58.402344 145.875 L 59.523438 144.9375 L 60.835938 144.375 L 61.210938 143.8125 L 61.585938 143.8125 L 61.769531 143.25 L 62.332031 143.0625 L 62.707031 143.25 Z M 62.894531 142.6875 "/>
<path style=" stroke:none;fill-rule:nonzero;fill:rgb(0%,48.627451%,34.901962%);fill-opacity:1;" d="M 76.183594 126.9375 L 76.371094 126.9375 L 76.371094 127.875 L 75.625 129 L 73.75 129.75 L 73.003906 129.9375 L 73.003906 130.3125 L 72.066406 130.5 L 72.253906 129.9375 L 74.875 127.875 Z M 76.183594 126.9375 "/>
<path style=" stroke:none;fill-rule:nonzero;fill:rgb(0%,47.058824%,33.725491%);fill-opacity:1;" d="M 224.25 157.5 L 224.625 158.25 L 224.625 163.875 L 224.808594 166.125 L 224.4375 170.4375 L 224.25 170.4375 Z M 224.25 157.5 "/>
<path style=" stroke:none;fill-rule:nonzero;fill:rgb(0%,49.411765%,35.294119%);fill-opacity:1;" d="M 205.71875 103.6875 L 206.652344 104.0625 L 208.898438 105.9375 L 212.082031 108.375 L 213.578125 109.5 L 213.578125 109.875 L 212.832031 109.5 L 211.332031 108.375 L 210.585938 108 L 210.023438 107.25 L 209.085938 106.6875 L 207.027344 105.1875 L 206.652344 104.4375 L 205.71875 104.0625 Z M 205.71875 103.6875 "/>
<path style=" stroke:none;fill-rule:nonzero;fill:rgb(0%,48.627451%,34.901962%);fill-opacity:1;" d="M 230.425781 116.4375 L 230.613281 116.8125 L 231.921875 117.1875 L 233.046875 118.125 L 233.609375 118.5 L 233.609375 118.875 L 234.167969 118.875 L 234.167969 119.25 L 235.105469 119.625 L 235.105469 120 L 235.667969 120.1875 L 235.855469 120.9375 L 234.917969 120.5625 L 232.671875 118.6875 L 230.425781 117 Z M 230.425781 116.4375 "/>
<path style=" stroke:none;fill-rule:nonzero;fill:rgb(0%,49.019608%,35.294119%);fill-opacity:1;" d="M 152.371094 50.0625 L 153.304688 50.4375 L 155.925781 52.5 L 158.921875 54.75 L 158.171875 55.125 L 157.609375 54.5625 L 157.609375 54.1875 L 156.488281 53.8125 L 154.988281 52.5 L 154.617188 52.3125 L 154.617188 51.9375 L 153.867188 51.5625 L 152.742188 50.8125 L 152.742188 50.4375 L 152.371094 50.4375 Z M 152.371094 50.0625 "/>
<path style=" stroke:none;fill-rule:nonzero;fill:rgb(0%,48.627451%,34.901962%);fill-opacity:1;" d="M 66.078125 119.4375 L 66.636719 119.625 L 66.636719 120 L 63.832031 122.0625 L 62.894531 122.4375 L 63.082031 121.5 L 64.019531 120.9375 L 64.390625 120.9375 L 64.390625 120.375 L 66.078125 119.8125 Z M 66.078125 119.4375 "/>
<path style=" stroke:none;fill-rule:nonzero;fill:rgb(0%,48.235294%,34.509805%);fill-opacity:1;" d="M 240.910156 120.375 L 241.09375 120.9375 L 240.347656 122.25 L 239.785156 122.8125 L 238.476562 122.8125 L 237.914062 122.25 L 238.476562 122.0625 L 239.035156 122.25 L 239.597656 121.6875 L 239.972656 121.6875 L 240.347656 121.125 L 240.722656 121.125 Z M 240.910156 120.375 "/>
<path style=" stroke:none;fill-rule:nonzero;fill:rgb(0%,47.450981%,33.725491%);fill-opacity:1;" d="M 152.554688 42.5625 L 152.742188 42.5625 L 152.929688 44.25 L 149.75 44.25 L 149.375 43.875 L 150.871094 43.6875 L 152.371094 43.875 L 152.371094 43.5 L 151.808594 43.3125 Z M 152.554688 42.5625 "/>
<path style=" stroke:none;fill-rule:nonzero;fill:rgb(0%,49.411765%,35.294119%);fill-opacity:1;" d="M 234.917969 140.8125 L 235.855469 141 L 236.601562 141.75 L 237.164062 141.75 L 237.164062 142.125 L 237.539062 142.3125 L 237.539062 142.6875 L 237.914062 142.875 L 237.726562 143.25 L 235.292969 141.375 Z M 234.917969 140.8125 "/>
<path style=" stroke:none;fill-rule:nonzero;fill:rgb(0%,47.058824%,33.725491%);fill-opacity:1;" d="M 75.808594 129.1875 L 76.558594 129.5625 L 76.746094 129.9375 L 76.746094 131.4375 L 76.371094 131.4375 L 76.371094 131.0625 L 75.808594 130.875 L 76.183594 130.875 L 75.4375 129.5625 Z M 75.808594 129.1875 "/>
<path style=" stroke:none;fill-rule:nonzero;fill:rgb(0%,49.019608%,35.294119%);fill-opacity:1;" d="M 138.703125 69.5625 L 139.078125 69.75 L 138.703125 70.3125 L 138.144531 70.5 L 137.957031 71.4375 L 137.019531 71.8125 L 136.457031 71.625 L 137.207031 70.6875 Z M 138.703125 69.5625 "/>
<path style=" stroke:none;fill-rule:nonzero;fill:rgb(0%,49.411765%,35.294119%);fill-opacity:1;" d="M 54.660156 149.0625 L 55.40625 149.25 L 53.347656 150.9375 L 52.410156 151.3125 L 52.597656 150.75 L 52.972656 150.75 L 53.347656 150 L 54.472656 149.4375 Z M 54.660156 149.0625 "/>
<path style=" stroke:none;fill-rule:nonzero;fill:rgb(0%,49.803922%,35.686275%);fill-opacity:1;" d="M 151.996094 55.3125 L 153.117188 55.6875 L 154.054688 56.625 L 154.242188 57.1875 L 154.617188 57.1875 L 154.429688 57.5625 L 152.183594 55.875 Z M 151.996094 55.3125 "/>
<path style=" stroke:none;fill-rule:nonzero;fill:rgb(0%,47.843137%,34.509805%);fill-opacity:1;" d="M 162.101562 103.125 L 162.476562 103.3125 L 162.289062 104.625 L 161.914062 105 L 160.417969 105 L 160.230469 104.625 L 161.542969 104.4375 Z M 162.101562 103.125 "/>
<path style=" stroke:none;fill-rule:nonzero;fill:rgb(0%,50.196081%,36.078432%);fill-opacity:1;" d="M 80.863281 108 L 81.425781 108 L 81.425781 108.375 L 79.742188 109.6875 L 79.179688 109.6875 L 79.367188 108.9375 L 79.929688 108.9375 L 79.929688 108.5625 L 80.863281 108.375 Z M 80.863281 108 "/>
<path style=" stroke:none;fill-rule:nonzero;fill:rgb(0%,49.803922%,35.686275%);fill-opacity:1;" d="M 223.875 197.8125 L 224.4375 197.8125 L 224.4375 198.9375 L 224.0625 199.5 L 223.125 199.5 L 223.3125 198.9375 L 223.6875 198.75 Z M 223.875 197.8125 "/>
<path style=" stroke:none;fill-rule:nonzero;fill:rgb(0%,49.803922%,35.686275%);fill-opacity:1;" d="M 65.703125 114.375 L 66.078125 114.375 L 65.703125 115.125 L 65.328125 115.125 L 65.328125 115.6875 L 64.953125 115.6875 L 64.953125 116.0625 L 64.390625 116.25 L 64.203125 115.6875 Z M 65.703125 114.375 "/>
<path style=" stroke:none;fill-rule:nonzero;fill:rgb(0%,49.019608%,35.294119%);fill-opacity:1;" d="M 67.386719 113.0625 L 67.761719 113.0625 L 67.574219 114 L 66.824219 114 L 67.011719 114.5625 L 66.078125 114.375 Z M 67.386719 113.0625 "/>
</g>
</svg>
