<svg width="25" height="24" fill="none" xmlns="http://www.w3.org/2000/svg"><path d="M12.98 2.163c3.204 0 3.584.012 4.85.07 3.252.148 4.771 1.691 4.919 4.919.058 1.265.069 1.645.069 4.849 0 3.205-.012 3.584-.069 4.849-.149 3.225-1.664 4.771-4.919 4.919-1.266.058-1.644.07-4.85.07-3.20396 0-3.58396-.012-4.84896-.07-3.26-.149-4.771-1.699-4.919-4.92-.058-1.265-.07-1.644-.07-4.849 0-3.204.013-3.583.07-4.849.149-3.227 1.664-4.771 4.919-4.919 1.266-.057 1.645-.069 4.84896-.069Zm0-2.163C9.72104 0 9.31304.014 8.03304.072c-4.358.2-6.78 2.618-6.98 6.98-.059 1.281-.073 1.689-.073 4.948 0 3.259.014 3.668.072 4.948.2 4.358 2.618 6.78 6.98 6.98 1.281.058 1.689.072 4.94796.072 3.259 0 3.668-.014 4.948-.072 4.354-.2 6.782-2.618 6.979-6.98.059-1.28.073-1.689.073-4.948 0-3.259-.014-3.667-.072-4.947-.196-4.354-2.617-6.78-6.979-6.98C16.648.014 16.239 0 12.98 0Zm0 5.838c-3.40296 0-6.16196 2.759-6.16196 6.162s2.759 6.163 6.16196 6.163c3.403 0 6.162-2.759 6.162-6.163 0-3.403-2.759-6.162-6.162-6.162Zm0 10.162c-2.209 0-3.99996-1.79-3.99996-4 0-2.209 1.79096-4 3.99996-4s4 1.791 4 4c0 2.21-1.791 4-4 4Zm6.406-11.845c-.796 0-1.441.645-1.441 1.44 0 .795.645 1.44 1.441 1.44.795 0 1.439-.645 1.439-1.44 0-.795-.644-1.44-1.439-1.44Z" fill="#009975"/></svg>