<?xml version="1.0" standalone="no"?>
<!DOCTYPE svg PUBLIC "-//W3C//DTD SVG 20010904//EN"
 "http://www.w3.org/TR/2001/REC-SVG-20010904/DTD/svg10.dtd">
<svg version="1.0" xmlns="http://www.w3.org/2000/svg"
 width="551.000000pt" height="195.000000pt" viewBox="0 0 551.000000 195.000000"
 preserveAspectRatio="xMidYMid meet">

<g transform="translate(0.000000,195.000000) scale(0.100000,-0.100000)"
fill="#000000" stroke="none">
<path d="M318 1803 c23 -2 59 -2 80 0 20 2 1 4 -43 4 -44 0 -61 -2 -37 -4z"/>
<path d="M445 1799 c-4 -5 18 -9 52 -9 32 0 166 -6 298 -14 927 -56 2332 -62
3535 -16 151 6 291 13 310 15 19 2 98 8 175 12 l140 8 -110 7 c-174 10 -4394
8 -4400 -3z"/>
<path d="M492 1727 c-46 -14 -107 -77 -115 -117 -26 -130 39 -210 171 -210 35
0 62 4 62 10 0 6 -8 10 -18 10 -24 0 -68 48 -76 82 -10 42 16 92 57 111 43 21
91 21 182 1 39 -8 109 -18 157 -21 84 -6 90 -5 151 25 35 17 72 41 83 53 l19
22 -25 -14 c-14 -7 -73 -16 -135 -19 l-110 -6 50 -16 50 -15 -66 -8 c-51 -5
-85 -2 -150 13 -175 42 -251 36 -297 -23 -24 -30 -29 -86 -12 -130 8 -20 7
-26 -2 -23 -7 3 -19 23 -27 45 -28 78 22 166 109 192 46 14 106 9 204 -15 96
-25 154 -5 66 23 -136 41 -258 53 -328 30z"/>
<path d="M4725 1729 c-27 -6 -95 -24 -149 -40 -113 -33 -208 -39 -274 -16 -43
15 -43 15 -26 -4 9 -10 44 -32 77 -49 50 -25 72 -30 131 -30 39 0 103 7 141
16 153 35 237 26 266 -29 29 -52 2 -130 -52 -150 -46 -18 -34 -27 34 -27 46 0
72 6 101 23 107 61 99 224 -13 286 -51 28 -153 37 -236 20z m185 -56 c71 -41
100 -158 51 -206 l-22 -22 10 28 c23 59 7 131 -33 159 -39 28 -152 27 -276 -2
-87 -20 -104 -22 -159 -15 -52 7 -54 8 -26 16 17 5 71 16 120 24 50 9 115 22
145 30 67 18 149 13 190 -12z"/>
<path d="M1386 1640 c-44 -14 -92 -51 -120 -94 -53 -81 -24 -200 63 -261 l43
-30 401 -6 c436 -7 458 -9 597 -68 94 -40 165 -88 265 -176 48 -43 87 -70 90
-64 4 5 48 46 98 90 103 90 220 153 352 190 75 21 105 23 480 28 l400 6 44 30
c83 56 114 161 71 244 -24 48 -83 98 -130 111 -44 12 -2613 12 -2654 0z m1165
-134 l-30 -43 30 -44 c33 -50 35 -59 15 -59 -8 0 -24 16 -36 35 -12 19 -25 35
-28 35 -4 0 -18 -16 -31 -35 -13 -19 -30 -35 -38 -35 -16 0 -12 8 23 57 13 17
24 34 24 38 0 3 -11 23 -25 45 -29 46 -30 50 -11 50 8 0 25 -14 37 -31 21 -30
23 -31 36 -13 29 41 44 55 53 49 6 -4 -3 -25 -19 -49z m183 -31 l23 -70 15 35
c8 19 21 52 28 73 8 20 20 37 27 37 18 0 17 -4 -19 -103 -43 -117 -60 -116
-100 3 -15 47 -26 91 -23 99 9 23 23 1 49 -74z m246 -20 c0 -78 -3 -95 -15
-95 -12 0 -15 17 -15 95 0 78 3 95 15 95 12 0 15 -17 15 -95z"/>
<path d="M1181 1605 c-24 -81 -25 -177 -2 -252 44 -148 111 -210 326 -304 148
-65 210 -102 244 -145 20 -26 21 -26 21 -5 0 82 -85 160 -245 227 -47 20 -100
47 -118 60 -17 13 -46 31 -64 39 -111 52 -170 169 -144 282 7 30 8 64 3 93
l-9 45 -12 -40z"/>
<path d="M4218 1600 c-2 -25 2 -61 9 -80 37 -103 -19 -229 -124 -282 -27 -13
-67 -36 -89 -50 -23 -15 -70 -39 -105 -54 -174 -72 -240 -130 -263 -228 -7
-28 -6 -28 46 19 54 48 74 59 253 138 55 24 119 55 141 70 54 34 107 99 140
173 24 51 27 72 27 159 0 65 -5 114 -15 140 l-15 40 -5 -45z"/>
<path d="M1085 1568 c-108 -77 -144 -138 -145 -241 l0 -68 60 63 c33 35 65 81
73 103 35 100 54 165 48 165 -3 0 -19 -10 -36 -22z m-5 -32 c0 -2 -14 -21 -31
-42 -17 -22 -44 -65 -60 -96 -16 -32 -32 -58 -35 -58 -13 0 8 77 32 117 23 40
67 83 85 83 5 0 9 -2 9 -4z"/>
<path d="M4304 1562 c8 -15 20 -56 27 -92 11 -58 19 -72 69 -125 32 -33 62
-69 68 -80 9 -16 11 -9 12 44 0 83 -15 132 -58 181 -30 36 -112 100 -127 100
-3 0 1 -12 9 -28z m96 -59 c37 -42 69 -107 70 -140 0 -34 -17 -28 -30 11 -6
18 -31 63 -55 100 -49 73 -39 91 15 29z"/>
<path d="M1471 1190 c31 -10 114 -28 185 -40 263 -44 404 -113 467 -229 53
-97 46 -194 -18 -250 -61 -53 -129 -53 -189 -1 -33 29 -35 30 -41 10 -15 -47
36 -126 98 -149 16 -6 54 -11 87 -11 80 0 153 39 197 104 102 151 77 339 -64
488 -77 80 -119 98 -224 97 l-84 -1 65 -20 c124 -38 230 -131 272 -238 31 -79
30 -189 -1 -253 -25 -52 -85 -107 -116 -107 -17 1 -16 4 10 23 53 39 75 69 92
126 40 138 -47 300 -204 380 -107 54 -313 92 -487 90 l-101 -1 56 -18z"/>
<path d="M3320 1189 c-57 -34 -140 -120 -167 -174 -72 -139 -69 -272 7 -388
34 -50 92 -93 111 -81 7 4 9 3 6 -3 -16 -26 137 -32 183 -8 40 21 82 78 85
117 4 49 -3 52 -41 18 -58 -51 -118 -52 -181 -4 -72 55 -83 140 -32 242 60
120 180 188 414 232 61 11 137 26 170 32 33 6 76 17 95 24 32 12 28 13 -66 13
-103 1 -265 -19 -366 -44 -176 -44 -301 -161 -328 -306 -21 -110 21 -208 106
-250 50 -24 52 -35 4 -24 -41 9 -95 57 -123 109 -18 33 -22 57 -21 126 1 109
28 174 108 253 63 63 112 92 201 118 l60 18 -95 0 c-79 1 -101 -3 -130 -20z"/>
<path d="M2435 1033 c48 -25 116 -83 136 -117 21 -35 24 -81 9 -122 -6 -15
-51 -68 -99 -118 -136 -140 -202 -260 -200 -369 0 -45 2 -48 10 -27 15 38 38
59 114 103 86 50 183 145 214 212 13 28 28 58 33 67 11 23 10 55 -1 62 -5 3
-11 -11 -15 -32 -7 -43 -36 -101 -78 -154 -25 -32 -183 -148 -202 -148 -19 0
1 21 58 63 126 92 199 200 212 312 7 57 24 59 24 2 0 -16 4 -26 10 -22 17 10
11 76 -11 122 -11 23 -41 61 -66 82 -48 43 -144 101 -165 101 -7 -1 1 -8 17
-17z"/>
<path d="M2924 1014 c-132 -79 -181 -155 -172 -268 11 -137 112 -275 263 -363
76 -44 99 -65 114 -103 9 -22 10 -20 10 20 2 117 -96 293 -222 402 -63 55 -93
116 -83 171 8 45 67 111 130 147 28 17 44 30 35 30 -8 0 -42 -16 -75 -36z
m-101 -355 c30 -68 97 -142 187 -209 61 -45 84 -70 64 -70 -17 0 -188 128
-213 159 -37 47 -75 119 -79 151 -1 14 -7 35 -14 47 -8 17 -8 30 3 55 l14 33
7 -56 c4 -31 18 -80 31 -110z"/>
<path d="M1799 944 c39 -102 -10 -175 -109 -161 -24 3 -70 26 -122 60 -140 93
-265 134 -368 121 -52 -7 -53 -8 -28 -18 14 -6 68 -52 120 -102 123 -119 197
-157 315 -163 69 -2 90 1 128 19 25 12 54 35 66 51 38 54 38 170 -2 219 -19
25 -19 25 0 -26z m-441 -95 c106 -89 179 -122 269 -123 78 -1 95 -11 37 -22
-86 -16 -205 20 -279 85 -47 41 -119 121 -108 121 5 0 42 -27 81 -61z"/>
<path d="M3606 946 c-25 -52 -21 -131 9 -182 37 -64 93 -87 198 -82 121 5 193
42 316 162 53 52 107 97 121 102 22 7 19 9 -25 16 -104 16 -232 -25 -372 -118
-130 -87 -213 -85 -242 4 -11 37 -11 48 3 83 21 51 15 62 -8 15z m509 -77
c-76 -80 -100 -100 -158 -130 -32 -17 -80 -33 -107 -36 -57 -7 -140 4 -140 18
0 6 19 7 49 3 55 -7 144 14 201 49 19 11 66 47 103 79 79 67 109 77 52 17z"/>
<path d="M1811 704 c-14 -14 -46 -36 -72 -49 -86 -44 -129 -117 -129 -220 0
-73 12 -83 37 -31 12 24 43 61 68 82 26 22 58 58 72 81 26 45 66 163 55 163
-4 0 -18 -12 -31 -26z m-15 -101 c-14 -28 -117 -135 -136 -141 -26 -9 -3 25
65 99 41 45 76 87 76 93 1 6 3 3 6 -6 2 -9 -2 -30 -11 -45z"/>
<path d="M3585 687 c13 -66 64 -153 114 -195 28 -23 60 -63 74 -92 l26 -51 7
46 c14 98 -29 206 -99 244 -16 9 -52 31 -79 48 l-50 33 7 -33z m127 -145 c54
-59 69 -82 50 -82 -18 0 -125 115 -142 153 -28 61 -24 78 7 32 14 -22 53 -68
85 -103z"/>
<path d="M2211 506 c-7 -8 -31 -23 -55 -34 -62 -30 -100 -65 -134 -126 -17
-29 -38 -61 -47 -70 -15 -15 -14 -16 12 -16 69 2 154 52 186 111 l19 34 -34
-38 c-36 -41 -85 -77 -105 -77 -22 0 -14 14 22 40 18 14 53 49 76 78 41 51 64
67 53 37 -4 -8 -4 -15 0 -15 7 0 29 81 23 86 -2 3 -10 -2 -16 -10z"/>
<path d="M3195 489 c11 -53 66 -149 100 -175 39 -30 97 -54 129 -54 l25 0 -34
58 c-50 85 -73 110 -119 133 -22 12 -56 33 -75 46 l-33 26 7 -34z m180 -198
c-17 -17 -109 58 -135 110 -34 66 -22 62 60 -23 43 -45 77 -84 75 -87z"/>
</g>
</svg>
