<svg version="1.0" xmlns="http://www.w3.org/2000/svg" width="398.66667" height="376" viewBox="0 0 299 282"><path d="M265.8 19.7c-2 .5-8.2 8.4-13.2 16.7-3.5 5.9-8.6 19.4-8.6 23.1 0 1.1-.4 2.7-.9 3.4-.8 1.2-2.6-.1-8.8-6-10-9.6-16.9-14.7-26.3-19.7-26.1-14-61.4-17.1-89-8-14.5 4.8-36.2 17.4-41.5 24.2-1.3 1.7-2.7 2.7-3.1 2.3-.4-.4-.7-7.8-.6-16.4.1-8.7-.1-16.5-.4-17.5C72.9 20.1 71 20 47 20H21l-.6 2.5c-.3 1.4-.4 18.1-.2 37.2.3 29.6.6 35.2 2 37.8 2.1 3.9 5 6.5 10.1 9 5.5 2.6 6.7 5.3 6.7 15.2 0 7.4-.3 8.5-2.5 10.9-1.9 2-2.5 3.8-2.5 7.3-.1 2.5-.5 26.6-1 53.6-1 53-.9 54.3 4.2 59.2 2.3 2.2 3.9 2.8 9.1 3.1 5.7.4 6.6.2 9.6-2.4 5.6-4.6 6-6.7 5.4-27.7-.6-21.4-.8-21.1 7.3-11.4 4.9 6.1 20.1 18.6 27.9 23 6.9 3.9 21.3 9.6 29.9 11.8 10.7 2.7 32.8 4.2 41.5 2.8 30.6-5 56.2-19 73.7-40.1 3.6-4.4 6.9-7.7 7.2-7.4.3.4.5 9.6.3 20.5-.2 15.9 0 20.5 1.3 23.4 2 5 6.8 7.7 13.4 7.7 4.5 0 5.7-.4 8.8-3.2 2.2-2.1 3.8-4.8 4.4-7.3 1.4-5.7.2-76.2-1.3-80-.9-2.1-1.3-23.1-1.7-72.8l-.5-69.9-2.4-1.9c-1.3-1-2.6-1.8-3-1.8-.3.1-1.4.3-2.3.6zm-234 36.8c.1 19.9.6 33.3 1.2 33.9.7.7 1.4.6 2.2-.2.9-.9 1.1-9.7 1-33.7L36 24l2.4-.6c1.3-.3 3.3-.4 4.3-.2 1.7.3 1.8 2.2 2 32.8.1 17.9.2 33.1.2 33.7.1 1.6 2.7 1.7 3.7.2.4-.7.6-15.3.5-32.6C48.9 24 49 23 53.5 23s4.6.9 4.1 34.2c-.3 17.2-.2 31.9.3 32.7.5.8 1.6 1.1 2.5.8 1.4-.6 1.6-4.6 1.8-33.9l.3-33.3 2.9-.3c1.6-.2 3.2 0 3.7.5s.9 16.5.9 35.6c0 34.5 0 34.8-2.2 37.8-1.3 1.7-4.5 4.2-7.3 5.6-7.9 4-8.5 4.8-8.5 11.7 0 3.4-.3 8.5-.7 11.4l-.6 5.3-4.1-.3-4.1-.3-.5-11.2c-.6-12.3-1.6-14.6-7.1-15.8-3.6-.8-8.8-5-9.9-8.1-1.1-2.7-1.5-69.8-.5-71.4.4-.6 2.1-1 3.8-.8l3.2.3.3 33zm237.6-30.9c.9 2.3.7 134.4-.1 134.5-.5.1-3.3.2-6.3.2-5.1.2-5.5 0-5.8-2.2-.2-1.3-2.3-7.8-4.7-14.5-7.5-21.1-8.8-29.5-8.2-54.1.4-19.1.7-21.8 3.2-30.5 3.1-10.9 9.9-24.8 15.1-30.8 3.8-4.4 5.8-5.2 6.8-2.6zM167.5 28c25.3 3.6 46.6 14.2 64.7 32.2 8.4 8.3 8.8 8.9 8.8 13 0 7.1-1.2 7.5-5.5 2.1-5.5-6.9-15-15.7-22.5-21-9.3-6.6-25.1-14.3-29.1-14.3-1.1 0-2.7-.4-3.7-.9-5.7-3.1-34.6-4.4-44.9-2-22.7 5.2-38.5 13.6-54.2 28.8-7 6.8-8.6 6.8-7.5-.4.7-4.8 5.7-10.4 15.4-17.3 3.6-2.5 6.7-4.9 7-5.2.9-1.1 21.8-10.1 26.7-11.5 13.3-3.8 32.3-5.2 44.8-3.5zm15 13.5c5.5 1.8 12.9 4.6 16.5 6.3 9.1 4.4 22.4 14.7 30.1 23.4 11 12.4 10.6 11.2 11.2 28.8.3 8.5 1.3 18.9 2.2 23 1.7 7.9 5.3 19.8 6.5 21.5.4.5 1.5 3.9 2.4 7.4 1.6 5.7 1.6 6.8.3 10-.8 2-2 5.8-2.6 8.6-2.8 11.5-14.3 29.8-25 39.7-13.8 12.8-24.3 18.9-42.1 24.5-11.2 3.5-11.9 3.6-27.5 3.7-14.7 0-16.8-.2-26-2.8-10.3-3-22.6-8.6-30.5-13.9-13.1-8.8-27.7-25.2-34.2-38.5l-3.3-6.6-.5-21.3c-.5-20.4-.6-21.3-2.7-23.3-2-1.8-2.3-3-2.3-10.6 0-4.7.5-9.4 1-10.5.6-1 3.4-3.1 6.1-4.5 9.4-4.7 11.9-9.5 11.9-22.6 0-7.6.1-7.9 3.8-12 14-15.7 31.1-26 53.2-32 6.1-1.7 19.2-2.6 30.5-2.1 8.8.4 13 1.2 21 3.8zm-127 94.7c.2.7.9 25.1 1.4 54.2 1 49.9 1 53.2-.7 56-1 1.7-3.2 3.9-5 4.9-3.1 1.8-3.5 1.9-7.7.3-7.1-2.8-7.7-5.3-7-32.5.3-12.4.7-36 1-52.4.3-16.5.8-30.3 1.1-30.8.9-1.4 16.4-1.1 16.9.3zm216.6 30c.4.6 1 18.2 1.4 39.3.8 43.1.8 42.7-6.3 45.9-3.5 1.6-4.2 1.6-7.5.3-5.8-2.5-7-5.4-7.1-17-.2-19.3 1.4-68.1 2.1-68.8 1.9-1.9 16.2-1.6 17.4.3zM250 185.3c0 9.4-3.9 16.5-15.4 28.1-11.2 11.4-20 17.9-31.9 23.8-25.9 12.9-56.2 15.3-81.8 6.7-8.9-2.9-23.4-10-29.8-14.6-8-5.6-20.6-17.9-25.7-25-4.2-5.9-4.4-6.5-4.4-13 .1-6.6.1-6.7 1.8-4.6.9 1.2 3.5 5 5.7 8.5 8.9 14.2 25.8 28.5 42.9 36.3 32.4 14.7 71.2 11.4 101.1-8.7 12.3-8.3 26.1-24 32.8-37.3 1.7-3.6 3.5-6.5 4-6.5.4 0 .7 2.9.7 6.3z"/><path d="M258 43.3c0 .1-1.4 4.3-3.1 9.2-3.6 10.8-6.9 29-6.9 38.8-.1 10.8 4.7 39.9 7.2 43.7 1.1 1.9.5-3.7-1.5-13-4.9-22.3-3.6-49.3 3.3-69.8 3.5-10 3.3-9.2 2-9.2-.5 0-1 .1-1 .3zM257.1 139.7c-.1 2.6 1.9 7.3 3.1 7.3 1.1 0 .9-.9-1.2-5.5-1.4-3.1-1.9-3.5-1.9-1.8zM145.2 73c-21.6 3-40.8 17-50.2 36.9-8.2 17.1-8 39.7.5 57.6 5.3 11.2 16.5 22.7 27.6 28.5 25.9 13.4 55 9.3 75.8-10.5 15.4-14.7 23.3-36.5 20.2-55.1-2.9-17-8.3-27.9-19.5-38.9-14.7-14.4-34.5-21.2-54.4-18.5zm22.1 5c12.9 3.2 20.1 7.4 29.7 17 13.3 13.3 18.2 24.8 18.3 43 .2 23.4-13 44.2-35.2 55.5-7.5 3.8-16 5.5-26.7 5.5-18.3 0-29.8-5-43.6-18.6-23.3-23.2-23.5-60.8-.4-84.7 9.1-9.5 20.4-15.6 33.6-18.2 9.4-1.9 15.6-1.8 24.3.5z"/></svg>