<svg viewBox="0 0 2048 684" width="679" height="227" xmlns="http://www.w3.org/2000/svg"><path d="M1493 446h168l20 2 11 4 9 7 15 3 9 8 2 4v4l-4-2-4-3-11-2-2 13-6 9-7 4-9 1-7-2-5-6-1-2v-6l3-2 5 1 3 8 5 1 8-4 2-4v-10l-1-2-5-1h-454l-159-1-1-1 1-7 8-10 16-1 126-2zm-401 11-1 2 28 1 8-1v-1z" fill="#116049"/><path d="m1767 146 9 1 6 4 5 8 2 7v9l13-4 3-2h3l-1 4-5 5-6 3-14 4-7 6-11 4-7 1-17 1h-408l-48-1-137-1-25-1 4-7 5-6 3-4 12-1h629l5-5v-7l-4-8-3-2h-7l-6 5-3 7-3-3v-8l3-5 6-3zm-620 37-11 1 1 2 3 1h13l9-1 75-1v-1zm501 2v1h109v-1z" fill="#0D5F48"/><path d="M396 446h112l291 1 72 1 44 1 9 11 2 5v3l-617 1-3 1v12l3 6 3 2 6-1 3-5 2-4 1-7 3 1 3 7 2 4-4 8-6 4-10 1-8-3-6-7-2-7v-11l-12 2-8 4 2-6 7-6 7-3 9-1 9-7 11-4 9-2zm491 12-11 1v1h36l-1-2z" fill="#0C5C45"/><path d="M228 146h11l7 4 3 6v7l-3 3-3-1-4-9-3-2-7 1-5 4-3 8 2 6 3 2 636 1 7 2 9 11-1 5-8 1-142 1-46 1H282l-39-1-12-3-6-4-6-5-15-3-7-4-2-3v-3l9 2 10 2-1-4v-11l4-7 5-4zm9 38 2 2 9 1h49l97-2v-1zm566 0v1l31 1h32v-2z" fill="#0F6049"/><path d="M1000 435h3l9 13 11 12 11 11 12 9 13 6 9 2 11 1h13l15-3 16-8 5-1-1 5-7 7-11 7-14 4-8 1h-23l-12-3-2-1-3 5-5-2-8-8-7-5h-2l-4 10-5 6-6 5-6 9-3 3-8-10-11-13-5-10-4 2-11 9-3 3-4-1-1-3-13 3-11 1h-16l-17-3-14-7-8-8-1-2v-10l2 1 3 6 10 6 20 5h19l10-2 17-7 11-7 5-4 5-6 5-4 7-8 10-14z" fill="#157C60"/><path d="M350 453h55l367 1 140 2v2l-23 1h-20l-9 1v1H323v-2l-7 1v-2l7-3 7-1zM1591 453h72l16 2 10 5v1h-536l-8-2-46-1-3-2 55-1 270-1z" fill="#083324"/><path d="M401 176h461l7 2 9 11-1 5-8 1h-25v-1l11-1v-3h14l-1-5-2 1v-2l-73 1-17-1H668l-204-1 2-6h-65z" fill="#0C5D46"/><path d="M441 183h335l17 1 75 2v3H731l-440 1-2-2 1-1 7-1 108-2z" fill="#093425"/><path d="M1439 183h83l71 1 35 1h136l7-1-3 3-12 3h-126l-256-1h-195l-19-1v-2l2-1z" fill="#0B3728"/><path d="m1000 129 3 3 9 15 8 16 4 13 1 6v20l-2 7h-2l-5-16-7-9-4-2h-9l-8 5-5 7-5 16-3-3-2-7 1-17 3-11 7-17 12-22z" fill="#177D61"/><path d="M1145 155h21l16 4 2 2-29 1-13 5-16 10-10 9-8 7-14 14-18 13-15 8-19 6-9-1 1-2 13-5 16-9 11-9 17-17 7-8 12-11 13-9 13-6z" fill="#1A7E63"/><path d="M837 155h17l13 2 16 8 11 9 12 11 10 10 7 8 2 4 4 2 9 7 12 7 5 3 14 3 1 2-13 1-15-4-16-8-14-10-12-11-9-9-8-7-11-9-16-9-9-3-8-1h-18l4-3z" fill="#1A7F63"/><path d="M1077 153h2l-1 10-3 24-2 11-6 12-7 6-12 6-14 3h-15l5-5 9-8 4-8 2-10 1-13 4 2 4 7 3 7h2l4-8 7-22 6-9 5-4z" fill="#197E62"/><path d="m923 154 5 1 8 7 8 25 4 10h3l2-5 6-10 3-1 2 20 4 9 6 8 4 3 5 2-4 2-13 1-14-5-9-5-7-6-7-12-2-9-2-17-2-13z" fill="#1B7F63"/><path d="M1090 426h23l9 3 8 7 2 4v3l-6-2-5-3-4-1h-14l-10 5-8 6-7 8-5 3-9 2h-12l-7-2-1-2 5-9 9-9 9-6 14-5z" fill="#177D61"/><path d="M890 426h22l16 4 12 6 10 9 6 7 2 6-9 3h-10l-11-3-8-7-10-9-12-6h-11l-10 4-7 4-1-3 4-6 9-6z" fill="#157C60"/><path d="M1146 176h81v1l-67 1 4 2v1l-5 1v1l-22 2-4 2-1 2h23l38 1 2 1-2 2h35v-2l16-1h26l1 5h-124l-25-1 4-7 5-6 3-4z" fill="#28856B"/><path d="M401 176h214v1h-46v2l5-1 3 3-9 1h-85l-5-2v2h-11l1-4h17l-84-1z" fill="#10775B"/><path d="M1209 199h1l-1 8-6 12-9 6-4 1h-13l-9-3-6-4-4-9v-2h14l15 1 9 5 4-1 4-5z" fill="#167C60"/><path d="m794 204 8 10 9-3 7-3h11l16 1-2 5-4 6-8 5-4 1h-17l-10-6-5-8z" fill="#127A5E"/><path d="m867 184 3 3-1 3-14 1 3 3-14 1h-58l-2-2 5-2 1-2 12-1 66 1z" fill="#085A43"/><path d="m864 177 5 1 9 11-1 5-8 1h-25v-1l11-1v-3h14l-1-5-2 1v-2l-73 1-10-1v-1l76-1v-4z" fill="#218267"/><path d="m874 471 2 1 3 6 10 6 20 5 3 3-14-1-9-2 1 2 7 3 18 4 1 2h-10l-9-2-14-7-8-8-1-2z" fill="#176750"/><path d="M1125 477h3l-1 5-7 7-11 7-8 1v-2l14-7-10 3-16 3-10-1-3-3 23-2 10-3z" fill="#15654E"/><path d="M1238 190h32l1 5h-48l2-2h3v-2z" fill="#1C8064"/><path d="m1058 220 3 1-2 4 6-3 5-1-1 3-11 5-16 5-9-1 1-2 13-5z" fill="#186852"/><path d="m1714 463 5 1 7 8 1 6-4-2-4-3-11-2-2 13-1 2h-2l1-18 7-1 7 2v-2l-3-1z" fill="#0F4433"/><path d="m1095 449 4 1-5 3-6 4-2 7h-2l-2 4-5-1 1-7 8-10z" fill="#238369"/><path d="M1209 199h1l-1 8-6 12-4 3-3-1v-4l-4-1v-2l-4-1v-2l5 1 3 2 4-1 4-5z" fill="#236F59"/><path d="m938 217 6 2 11 7 14 3 1 2-13 1-9-2-3-6-7-5z" fill="#1F6F58"/><path d="m794 204 8 10 9-3 4-2 3 1-4 4-8 5-1 2-5-1-5-8z" fill="#26715C"/><path d="M1133 186h27v2h19l2 2h-29l-20-1z" fill="#0B5C45"/><path d="m1113 427 7 1 10 8 2 4v3l-6-2-5-3-11-3v-1h11l-3-3-5-3z" fill="#1A6952"/><path d="M1634 446h27l4 2-2 1h-49l-5-1v-1z" fill="#104735"/><path d="m235 186 55 1-1 2h-43l-9-1z" fill="#0A4A36"/><path d="M1160 156h11l13 4v1h-29z" fill="#0E6149"/><path d="m880 430 4 1-1 2 2 1v2l-13 7h-3l2-6 7-6z" fill="#13654E"/><path d="m1674 480 5 1 3 8 2 1v2l-5-1v-2l-7 1-1-2v-6z" fill="#0E4030"/><path d="m324 473 3 1 1 2v9l-5 5h-4l3-9 1-1z" fill="#1C5241"/><path d="M1676 489h3l1 2h5l3 4v3l-9-1-6-5v-2z" fill="#1D6853"/><path d="m917 452 4 5 3 3-1 3-6 1-2-6v-2l-4-2z" fill="#177D61"/><path d="M832 156h9l3 2v2l-23 1 4-3z" fill="#1A6852"/><path d="M1044 227h3l1 2 3 2-9 3-9-1 1-2z" fill="#4F917F"/><path d="M1158 208h14l4 2h-3v2h-10v2h-2v-2h-2z" fill="#1D6B55"/><path d="m839 216 1 3-5 4-4 2h-10l1-2 15-5z" fill="#0D6149"/><path d="M1678 449h7l10 5 5 4v2l-5-2-13-7z" fill="#114232"/><path d="M818 208h11l9 2v1l-11 1-10-1z" fill="#176751"/><path d="m217 179 10 1v2h2v2h2l-1 3-4-2h-2l-1 2-2-3 1-2-4-1z" fill="#117A5D"/><path d="m1704 468 3 1v12l-2 5h-2z" fill="#083B2A"/><path d="M956 228h9l5 2v1l-13 1z" fill="#347D68"/><path d="M468 178h8l3 2-1 2h-11z" fill="#117A5D"/><path d="M833 209h12l-2 5-3 4-1-3 1-3h-2v-2h-5z" fill="#24745D"/><path d="m959 222 14 1-1 3-10-1-3-1z" fill="#1D6C56"/><path d="m1133 186 16 1v1l-7 1h-10z" fill="#11664E"/><path d="m1080 459 1 3v2l2 1-1 3-5-1 1-7z" fill="#287760"/><path d="M1679 462h14v2l-7 1-11-1z" fill="#117A5D"/><path d="M242 158h3l3 4v3l-3 1-3-3z" fill="#1F4C3D"/><path d="m1131 159 2 1-4 4-5 2h-3l4-4z" fill="#095F47"/><path d="m1687 490 4 1-1 5-5 1 2-2-2-4z" fill="#083929"/><path d="m819 161 2 1z" fill="#FEFEFE"/></svg>