<svg viewBox="0 0 1244 1604" width="311" height="401" xmlns="http://www.w3.org/2000/svg"><path d="M337 135h15l1 1 1 17 1 114 3 27 4 23 6 21 12 33 8 16 10 17 10 15 12 16 9 10v2h2l7 8 11 11 11 9 10 8 23 15 19 11 16 8 15 8 33 21 13 10 14 11 12 11 8 7 7 6 4-2 12-11 11-10 28-22 22-14 17-10 24-13 23-13 14-9 13-10 14-12 12-11 7-7 18-22 16-24 10-18 12-28 7-20 6-22 5-33 1-12 1-131 1-2h18l1 1v136l-3 26-4 24-7 25-9 25-12 25-10 18-7 10-7 11-11 14-15 16-17 17-11 9-8 7-18 13-18 10-22 12-18 10-22 13-12 8-18 14-11 9-13 12h-2l-2 4-2 2 1 4 13 16 13 18 12 19 11 19 11 21 14 32 10 28 14 49 8 34 8 42 7 45 6 49 6 59 10 121 5 47 6 39 7 35 5 19 10 32 10 24 12 23 14 22 11 14 12 13 8 9 1 4-15 8-32 14-38 14-27 8-30 8-38 7-35 4-26 2h-45l-39-3-27-4-36-7-24-6-33-11-24-9-36-15-16-7-3-2 1-5 7-8 13-15 9-11 10-15 9-16 12-24 10-27 9-29 8-33 6-35 6-48 5-52 6-78 8-78 8-59 7-42 7-34 8-31 14-48 6-17 11-26 12-25 11-19 13-20 11-16 7-9 12-15-2-5-8-8-8-7-12-10-17-12-18-12-18-11-24-14-24-12-24-16-22-18-13-12-10-10-9-11-16-21-13-20-14-27-11-29-6-20-5-20-5-32-1-10V153l1-17zm294 490-10 9-10 14-10 15-10 16-9 15-11 21-11 27-9 24-12 41-9 36-8 38-8 50-4 29-4 35-4 44-10 125-5 41-5 35-7 39-9 36-10 29-10 24-12 23-10 15-15 22-4 6v3l30 13 28 10 21 7 30 8 41 8 21 3 12 1 45 1 35-1 30-3 30-5 41-9 37-12 18-7 19-7 14-7v-4l-10-13-11-16-9-15-8-16-7-15-9-25-8-25-8-32-5-27-7-51-5-48-6-74-9-102-9-66-6-34-10-46-8-30-9-30-7-19-10-24-17-34-16-26-11-16-10-14-9-10z" fill="#028B63"/><path d="m481 546 7 1 17 7v2l-16 10-19 13-14 12-9 9-12 16-10 15-9 16-10 22-10 27-8 30-8 40-15 87-13 72-10 52-11 50-18 65-12 37-13 34-11 26-8 16-9 17-8 16-9 15-13 19-14 19-12 15-2 4 12 9 17 11 15 8 15 6 24 8 32 8 24 4 42 4 9 3-1 5-7 11-2 1h-26l-27-3-37-8-25-7-22-8-22-10-18-10-16-12-13-11-5-9 8-11 12-12 9-11 12-16 8-12 9-14 15-28 12-24 13-31 12-34 14-43 16-63 10-42 10-50 12-67 11-64 10-56 5-23 9-29 8-20 12-25 12-21 13-18 12-14 7-7 8-7 14-11 15-10zM778 546l6 1 11 6 19 14 15 14 9 11 10 13 12 19 12 23 12 29 9 29 8 32 8 45 10 57 10 58 12 63 12 53 12 46 11 38 17 49 13 31 11 24 8 16 8 15 20 30 13 17 12 14 8 8 5 7-1 5-4 6-11 10-17 12-16 9-15 8-25 10-23 7-34 8-24 4-24 2h-13l-8-7-6-10 1-2 11-2 30-2 35-5 25-6 23-7 26-11 23-12 14-10 4-3-2-4-12-16-12-15-18-27-11-19-10-19-15-33-11-28-15-43-8-26-13-48-9-39-9-43-16-88-8-47-6-36-7-36-7-30-7-25-10-26-11-23-14-22-13-16-9-10-8-8-17-13-19-12-6-4 5-4zM864 134h11l6 2v92l-3 21-6 15-10 15-11 12-10 8-14 7-19 5-20 1h-20l-22 2-20 4-16 5-11 6-16 12-7 7-13 17-7 11-5 14-7 28-1 7-1 20-1 3-2 1h-16l-2-2-2-25-5-25-4-13-8-16-8-11-9-11-7-7-26-15-15-6-18-4-9-1-40-1-18-1-12-3-16-8-10-7-7-6-9-11-8-13-6-16-2-11-1-18v-31l1-48 2-4h17l1 1 1 61 1 33 4 18 7 13 9 11 8 7 12 7 6 2 7 1 44 1 24 3 19 4 20 7 9 5 7 6 11 7 14 13 10 13 8 13 8 14 2 1 10-20 10-14 12-13 5-5 9-8 14-9 17-8 19-5 21-3 15-1h38l15-4 15-8 14-14 6-9 4-11 3-20 1-76 1-13z" fill="#028B63"/><path d="m321 971 2 1-4 18-5 21-4 20-3 10-4 16-4 14-4 16-4 10-2 6-4 13-5 15-4 10-2 6-5 13-8 18h-2v5l-4 8-5 11-2 1-3 9-7 15-2 1v2l2 1-2 1-4 8h-2l-1 4-3 5v2l-3 1-1 3-3 3-1 5-8 7-8 10-1 2h-2l-1 4-5 4h-2l-2 4h-2l-2 4h-2l-2 5-4 2-2 3v4l3 2v2l4 2 8 7 15 11 8 5 2 3 5 2v2l6 2 4 2v2l-5-1-20-11-16-12-13-11-5-9 8-11 12-12 9-11 12-16 8-12 9-14 15-28 12-24 13-31 12-34 14-43 16-63z" fill="#077A58"/><path d="m1089 1307 2 1-1 5-4 6-11 10-17 12-16 9-15 8-25 10-23 7-34 8-24 4-24 2h-13l-8-7-6-10 1-2 11-2 12-1h19l-2 2-3 1-20 1-8 1h-6l2 5 5 6 3 2h21l18-2 25-4 19-4 4-2h6l5-2 23-7 10-4 15-7 22-12 20-14 10-8 3-5h2z" fill="#077B59"/><path d="m1007 1229 4 4h2l2 5v2l5 5 5 8 3 3 4 7 7 11 4 6 5 5 8 10 3 5 5 5 2 7-4 3h-2l-2 4-5 5-5 1v2l-5 1v2h-4v2l-8 4-12 5-11 5-17 6-16 5-19 5-13 2 1-2 32-8 21-7 24-10 23-12 14-10 4-3-2-4-12-16-12-15-18-27-11-19z" fill="#077A58"/><path d="m356 362 3 4 4 10 3 3 1 5 3 3 3 6v4l2 1v3l3 1 2 6 2 1v4h3l2 5v2l4 3v2h2l3 5 2 4v3l4 1 3 4v3l2 1v3h3l1 4 4 2v2h2l6 7 5 5 5 4 1 5 3-1 4 4v2h2v2l4 2 7 6 5 5 12 9 12 8-2 1-21-14-22-18-13-12-10-10-9-11-16-21-13-20-14-27-7-18z" fill="#077A59"/><path d="m849 1386 4 4 10 16 11 13 9 10 7 7 3 5-1 3-23 11-26 11-30 11-12 4-4-1 12-5 20-7 11-5 12-4 16-8 10-4 9-5h3l-3-5-6-6v-2h-2v-2h-2l-8-8-7-9-5-6-2-7h-2l-4-8z" fill="#077B59"/><path d="m828 1390 5 4 3 7h2v4h3l1 4h2l5 8 8 10 3 4 2 6-11 6-4 3-9 3h-3v2l-5 1-15 6-24 7-9 3-12 3-3-1 36-12 24-9 21-8 9-5-2-4-11-15-9-13-7-11z" fill="#077A58"/><path d="M345 951h1l-1 10-8 39-7 30-17 62-12 37-13 34-3 6-1-3 9-23 3-10 6-16v-3h2l2-12 3-8 8-26 9-34 4-16 6-26 6-28z" fill="#077B59"/><path d="m264 1210 1 3-9 17-6 12-20 30-14 19-12 15-2 4 12 9 17 11 15 8-3 1-15-7-4-2v-2l-6-2-6-4v-2l-5-1v-2l-3-1-5-6 2-5 8-10 7-9 8-11 13-19 4-7 4-5 18-33zM864 403l1 3-8 12-1 3h-2l-2 5-4 4-1 2h-2l-2 5-5 6-2 1v2h-2l-2 4-7 6-5 6h-2l-2 4-10 8-7 6h-2v2l-11 9-10 5h-2v2l-7 3-1 2-7 3-17 9-8 4-2-1 14-8 25-14 14-9 13-10 14-12 12-11 7-7 18-22zM485 547l6 1 14 6v2l-16 10-19 13-14 12-9 9-12 16-10 15-9 16h-2l3-9 4-4 6-12 8-11 6-9h2l2-4 14-14 14-11 15-10 5-5 5-1 1-2h-2v-2l-5-1v-2l-7-2z" fill="#077A59"/><path d="m813 490 2 1-9 8-18 13-18 10-22 12-18 10-22 13-12 8-5 4h-2l2-4 24-16 11-6 15-9 16-8 12-7 11-6 18-12h2v-2z" fill="#077B59"/><path d="m396 639 1 3-5 11-5 14-3 6-1 6-4 10-3 8-5 17-2 8-3 15-3 13-2 10h-1l1-12 6-31 7-25 10-28z" fill="#077A59"/><path d="m267 1347 5 1 32 9 24 5 23 3 32 3 4 2-21 1-2-1-25-3h-6l-4-2-15-2-16-4-16-5-15-6z" fill="#077A58"/><path d="m884 407 1 3-8 12-7 11-9 12-9 10-7 8-20 20-7 6h-2l2-4 17-16 9-9 7-8 4-5 1-2h2l2-5h2l2-4 7-10 6-9 4-7z" fill="#077A59"/><path d="M481 546h3v4h-2l-1 2-2 1v2l5-2 2 5-8 1-1-2-2 1-1-2-9 6-10 6-5 6-10 6-3 5-5 2 2-4 8-8 8-7 14-11 15-10zM640 632l5 5 9 11 5 8h2l2 4 2 1 2 7 3 2 8 16 14 27 5 11-1 3-18-36-16-26-11-16-10-14z" fill="#077A58"/><path d="M604 623v3l-12 17-8 13-9 15-7 11-3 6-4 7h-2l-1 5-6 10-1-2 10-20 11-19 13-20 11-16 7-9zM406 662h2l-1 5-10 26-8 29-8 38-2 10h-1v-8l4-20 2-11 3-15 2-4 4-16 6-17 4-9z" fill="#077B59"/><path d="m559 742 1 3-8 21-12 41-9 36-4 17h-1l1-10 4-20 5-19 6-21 6-20 8-23z" fill="#067C5A"/><path d="M746 311h15v1l-27 4-21 6-14 7-16 12-8 8-2-2 10-10 13-10 16-8 13-4zM720 296h5l-2 3-4-1v2l-3 3-8 1-3 3-10 2-1 3h-3v2l-5 2-4 2h-3v2l-5 3-2-1 10-8 13-8 18-8z" fill="#077B59"/><path d="m431 449 7 6 11 11 11 9 10 8 23 15 6 4-2 1-9-5-11-6-10-7-4-3v-2l-4-2v-2l-4-2-6-5-4-3v-2h-2v-2h-2v-2l-4-2-6-7z" fill="#077A59"/><path d="m548 321 9 2 16 9 10 9 7 6v2l3 1 1 4h2l8 11 3 7 1 5-4-5-6-10-13-16-7-7-26-15z" fill="#077A58"/><path d="M591 1487h76v1l-14 1v1h-45l-3-1-14-1zM896 330l1 3-8 25-4 10-8 16-5 9-1 4h-2v2l-2-1 8-15 12-28 7-20zM409 1439l5 1 24 10 25 9 8 3-3 1-9-3-10-2v-2l-8-2-22-9-10-5z" fill="#077B59"/><path d="m857 280 3 1-7 8-9 8-14 8-6 1 1-2 12-6 13-11z" fill="#067C5A"/><path d="m999 1346 2 1-3 3-13 4-24 7-15 3-3-1 9-3 24-6 21-7z" fill="#077C5A"/><path d="m864 403 1 3-8 12-1 3h-2l-2 5-4 4-1 2h-2l-2 5-5 5-2-1 11-13z" fill="#067C5A"/><path d="m581 575 5 2 15 13 11 9 5 5 1 5-4 3 1-5-9-10-10-9-14-11zM264 1210l1 3-9 17-6 12-3 3-1-4 3-4 7-14 3-4 4-8z" fill="#077B59"/><path d="M265 1161h2v5l-4 7-2 5h-2v5l-7 14-3 1 2-6 9-19zM383 1424v3l-1 3-5 5-3 1v7l-1 2 6 1 4 4-5-1-9-5 1-5 7-8zM455 564l2 1-3 5-6 5-8 5-3 5-5 2 2-4 8-8 8-7zM1089 1307l2 1-1 5-4 6-11 10-4 2 2-4 11-11 1-2h2zM813 490l2 1-9 8-11 8v-3l3-3h2v-2zM406 662h2l-1 5-9 23-2-1 3-11 2-2z" fill="#067C5A"/><path d="m805 588 4 2 11 11 9 12-1 2-11-13-7-8z" fill="#077A58"/><path d="m485 547 6 1 14 6v2l-6 3v-4h-2v-2l-5-1v-2l-7-2z" fill="#067C5A"/><path d="m415 1417 1 2-10 15-1 3 4 2-6-1-1-4 4-4 3-5z" fill="#077B59"/><path d="M878 376h2l-2 7-6 10-1 4h-2v2l-2-1 8-15z" fill="#067C5A"/><path d="M591 1487h35v1l-16 1h-3l-16-1z" fill="#05815D"/><path d="m562 689 1 2-2 4h-2l-1 5-6 10-1-2 9-18z" fill="#067D5B"/><path d="m864 403 1 3-8 12-1 3h-3l2-5zM935 1363h7l-1 2-14 2h-5l1-2z" fill="#077B59"/><path d="M683 571h3v2l-12 9h-3l4-4h2l2-4z" fill="#077A58"/><path d="M768 550h3v2l-3 1-1 2-3 2 3 3-5-2-3-3z" fill="#077B59"/><path d="m414 1382 1 4-7 10-5 5 2-5z" fill="#067E5B"/><path d="m785 1464 2 1-1 2-9 2-7 2-3-1z" fill="#067C5A"/><path d="m264 1210 1 3-7 13-2-1 7-14z" fill="#067E5B"/><path d="M775 547h5l4 4-3 2-5-3-4 1 1-3z" fill="#077A58"/><path d="m497 557 2 2-11 8v-3l5-6z" fill="#077958"/><path d="m369 1441 5 1-1 3 6 1 4 4-5-1-9-5z" fill="#077A58"/><path d="M835 299h2l-1 3-9 4-3-1z" fill="#077B59"/><path d="m998 1366 3 1-3 2-10 3 1-3zM421 634l1 2-6 11h-2l3-9zM742 292h6l1 3h-12l1-2z" fill="#067C5A"/></svg>